<svg width="37" height="36" viewBox="0 0 37 36" fill="none" xmlns="http://www.w3.org/2000/svg">
<g clip-path="url(#clip0_357_35)">
<path d="M35.2143 3.84961H1.78571C1.07455 3.84961 0.5 4.42416 0.5 5.13532V30.8496C0.5 31.5608 1.07455 32.1353 1.78571 32.1353H35.2143C35.9254 32.1353 36.5 31.5608 36.5 30.8496V5.13532C36.5 4.42416 35.9254 3.84961 35.2143 3.84961ZM33.6071 8.30139V29.2425H3.39286V8.30139L2.28393 7.43756L3.86295 5.40854L5.58259 6.74648H31.4214L33.1411 5.40854L34.7201 7.43756L33.6071 8.30139ZM31.4214 6.74247L18.5 16.7871L5.57857 6.74247L3.85893 5.40452L2.27991 7.43354L3.38884 8.29738L17.1138 18.9688C17.5086 19.2755 17.9941 19.4419 18.494 19.4419C18.9938 19.4419 19.4794 19.2755 19.8741 18.9688L33.6071 8.30139L34.7161 7.43756L33.1371 5.40854L31.4214 6.74247Z" fill="#5B3C1D"/>
</g>
<defs>
<clipPath id="clip0_357_35">
<rect width="36" height="36" fill="white" transform="translate(0.5)"/>
</clipPath>
</defs>
</svg>
