<svg width="37" height="36" viewBox="0 0 37 36" fill="none" xmlns="http://www.w3.org/2000/svg">
<path d="M18.4989 9.75354C13.9387 9.75354 10.2583 13.4339 10.2583 17.9942C10.2583 22.5544 13.9387 26.2348 18.4989 26.2348C23.0592 26.2348 26.7396 22.5544 26.7396 17.9942C26.7396 13.4339 23.0592 9.75354 18.4989 9.75354ZM18.4989 23.35C15.5498 23.35 13.1431 20.9433 13.1431 17.9942C13.1431 15.0451 15.5498 12.6384 18.4989 12.6384C21.448 12.6384 23.8547 15.0451 23.8547 17.9942C23.8547 20.9433 21.448 23.35 18.4989 23.35ZM27.0771 7.4955C26.0123 7.4955 25.1525 8.35532 25.1525 9.42006C25.1525 10.4848 26.0123 11.3446 27.0771 11.3446C28.1418 11.3446 29.0016 10.4888 29.0016 9.42006C29.0019 9.16723 28.9524 8.91683 28.8558 8.68319C28.7592 8.44955 28.6174 8.23726 28.4386 8.05848C28.2599 7.87971 28.0476 7.73796 27.8139 7.64135C27.5803 7.54475 27.3299 7.49519 27.0771 7.4955ZM34.5623 17.9942C34.5623 15.7763 34.5824 13.5785 34.4579 11.3647C34.3333 8.79327 33.7467 6.51113 31.8664 4.63077C29.982 2.7464 27.7038 2.16381 25.1324 2.03925C22.9146 1.9147 20.7168 1.93479 18.503 1.93479C16.2851 1.93479 14.0873 1.9147 11.8735 2.03925C9.30206 2.16381 7.01992 2.75041 5.13956 4.63077C3.25519 6.51515 2.6726 8.79327 2.54804 11.3647C2.42349 13.5826 2.44358 15.7803 2.44358 17.9942C2.44358 20.208 2.42349 22.4098 2.54804 24.6236C2.6726 27.1951 3.2592 29.4772 5.13956 31.3576C7.02394 33.2419 9.30206 33.8245 11.8735 33.9491C14.0913 34.0736 16.2891 34.0535 18.503 34.0535C20.7208 34.0535 22.9186 34.0736 25.1324 33.9491C27.7038 33.8245 29.986 33.2379 31.8664 31.3576C33.7507 29.4732 34.3333 27.1951 34.4579 24.6236C34.5864 22.4098 34.5623 20.212 34.5623 17.9942ZM31.0266 27.4683C30.7333 28.1995 30.3797 28.7459 29.8132 29.3084C29.2467 29.875 28.7043 30.2285 27.973 30.5218C25.8597 31.3616 20.8413 31.1727 18.4989 31.1727C16.1565 31.1727 11.1342 31.3616 9.02081 30.5259C8.28956 30.2326 7.74313 29.879 7.18063 29.3125C6.61411 28.7459 6.26054 28.2035 5.96724 27.4723C5.13153 25.3549 5.32036 20.3366 5.32036 17.9942C5.32036 15.6518 5.13153 10.6294 5.96724 8.51604C6.26054 7.78479 6.61411 7.23836 7.18063 6.67586C7.74715 6.11336 8.28956 5.75577 9.02081 5.46247C11.1342 4.62675 16.1565 4.81559 18.4989 4.81559C20.8413 4.81559 25.8637 4.62675 27.9771 5.46247C28.7083 5.75577 29.2547 6.10934 29.8172 6.67586C30.3838 7.24238 30.7373 7.78479 31.0306 8.51604C31.8664 10.6294 31.6775 15.6518 31.6775 17.9942C31.6775 20.3366 31.8664 25.3549 31.0266 27.4683Z" fill="#5B3C1D"/>
</svg>
