<svg width="37" height="36" viewBox="0 0 37 36" fill="none" xmlns="http://www.w3.org/2000/svg">
<path d="M35.2138 7.64725C33.9844 8.17761 32.6464 8.55931 31.2683 8.70797C32.6991 7.85793 33.7706 6.51502 34.2817 4.93118C32.9391 5.72989 31.4682 6.28996 29.9344 6.58654C29.2933 5.9012 28.518 5.35523 27.6567 4.98264C26.7954 4.61006 25.8666 4.41884 24.9281 4.42092C21.1313 4.42092 18.0777 7.49859 18.0777 11.2754C18.0777 11.8057 18.142 12.3361 18.2464 12.8464C12.5612 12.549 7.49063 9.83297 4.11964 5.67449C3.50541 6.72361 3.18354 7.91816 3.1875 9.13386C3.1875 11.5124 4.39687 13.6098 6.24107 14.8432C5.15426 14.8004 4.09289 14.5017 3.1433 13.9714V14.0557C3.1433 17.3865 5.49777 20.1468 8.63572 20.7816C8.04653 20.9347 7.44043 21.013 6.8317 21.0147C6.38572 21.0147 5.96384 20.9705 5.53795 20.9102C6.4058 23.6263 8.93304 25.599 11.9424 25.6633C9.58795 27.5075 6.63884 28.5923 3.43661 28.5923C2.86205 28.5923 2.3317 28.5723 1.78125 28.508C4.81875 30.4566 8.42277 31.5816 12.304 31.5816C24.904 31.5816 31.7987 21.1432 31.7987 12.083C31.7987 11.7856 31.7987 11.4883 31.7786 11.191C33.1125 10.2147 34.2817 9.00529 35.2138 7.64725Z" fill="#5B3C1D"/>
</svg>
