<svg width="124" height="124" viewBox="0 0 124 124" fill="none" xmlns="http://www.w3.org/2000/svg">
<g filter="url(#filter0_d_640_63)">
<path d="M26.0399 45.8801L26.8751 43.3096H29.5779L27.3913 41.721L28.2265 39.1505L26.0399 40.7392L23.8534 39.1505L24.6886 41.721L22.502 43.3096H25.2048L26.0399 45.8801Z" fill="white"/>
</g>
<g filter="url(#filter1_d_640_63)">
<path fill-rule="evenodd" clip-rule="evenodd" d="M56.3717 18.7538C59.953 22.0652 62.3628 26.4494 63.2389 31.2477C64.115 36.0459 63.41 40.9989 61.23 45.3622C59.0499 49.7254 55.5126 53.2632 51.1496 55.4439C46.7867 57.6245 41.8338 58.3301 37.0354 57.4546C39.6019 59.8277 42.6854 61.5709 46.042 62.5464C49.3986 63.5218 52.9361 63.7028 56.3747 63.075C59.8133 62.4472 63.0586 61.0277 65.8539 58.929C68.6491 56.8303 70.9177 54.1099 72.48 50.9831C74.0423 47.8562 74.8555 44.4086 74.8552 40.9132C74.855 37.4178 74.0413 33.9703 72.4786 30.8437C70.9159 27.717 68.647 24.9969 65.8515 22.8985C63.0559 20.8002 59.8104 19.3812 56.3717 18.7538ZM51.8354 18.7707C50.4782 17.8866 50.7176 15.5776 52.3367 15.5776C56.6832 15.5781 60.9566 16.6965 64.7461 18.8254C68.5356 20.9542 71.7139 24.022 73.9755 27.7338C76.2371 31.4457 77.506 35.6768 77.6603 40.0206C77.8146 44.3644 76.849 48.6749 74.8564 52.5378C72.8638 56.4007 69.9112 59.6862 66.2822 62.0786C62.6533 64.4709 58.47 65.8897 54.1345 66.1985C49.7989 66.5074 45.4568 65.6959 41.5253 63.8421C37.5939 61.9883 34.2054 59.1546 31.6853 55.6131C30.8406 54.4304 32.3752 53.0422 33.724 53.5857C38.2687 55.4227 43.3348 55.5004 47.9337 53.8036C52.5326 52.1067 56.3342 48.7572 58.5966 44.4086C60.8591 40.0599 61.4199 35.0244 60.1698 30.2845C58.9197 25.5447 55.9483 21.4407 51.8354 18.7735" fill="white"/>
</g>
<g filter="url(#filter2_d_640_63)">
<path d="M91.7601 16.1201L93.152 20.4042H97.6566L94.0123 23.0519L95.4043 27.336L91.7601 24.6883L88.1158 27.336L89.5078 23.0519L85.8635 20.4042H90.3681L91.7601 16.1201Z" fill="white"/>
</g>
<g filter="url(#filter3_d_640_63)">
<path d="M79.6701 65.1001L80.8533 61.4586H84.6822L81.5846 59.208L82.7678 55.5665L79.6701 57.8171L76.5725 55.5665L77.7557 59.208L74.6581 61.4586H78.487L79.6701 65.1001Z" fill="white"/>
</g>
<g filter="url(#filter4_d_640_63)">
<path d="M28.2251 86.108H28.8947V90.2H17.6107V89.5552L18.9747 89.4064C19.2392 89.3734 19.3963 89.3072 19.4459 89.208C19.4955 89.1088 19.5203 88.7699 19.5203 88.1912V75.3448C19.5203 74.7662 19.4955 74.4272 19.4459 74.328C19.3963 74.2288 19.2392 74.1627 18.9747 74.1296L17.6107 74.0056V73.336H23.5875V74.0056L22.2235 74.1296C21.959 74.1627 21.8019 74.2288 21.7523 74.328C21.7027 74.4272 21.6779 74.7662 21.6779 75.3448V89.4064H26.1667C26.5635 89.4064 26.8446 89.3982 27.0099 89.3816C27.1752 89.3486 27.2827 89.2907 27.3323 89.208C27.3984 89.1088 27.4563 88.96 27.5059 88.7616L28.2251 86.108ZM39.7877 74.0056V73.336H44.5245V74.0056L43.1605 74.1296C42.896 74.1627 42.7389 74.2288 42.6893 74.328C42.6397 74.4272 42.6149 74.7662 42.6149 75.3448V84.4712C42.6149 86.356 42.1768 87.8275 41.3005 88.8856C40.4408 89.9272 39.1181 90.448 37.3325 90.448C35.3816 90.448 33.8853 89.8776 32.8437 88.7368C31.8186 87.596 31.3061 86.0254 31.3061 84.0248V75.3448C31.3061 74.7662 31.2813 74.4272 31.2317 74.328C31.1821 74.2288 31.025 74.1627 30.7605 74.1296L29.3965 74.0056V73.336H35.3733V74.0056L34.0093 74.1296C33.7448 74.1627 33.5877 74.2288 33.5381 74.328C33.4885 74.4272 33.4637 74.7662 33.4637 75.3448V84.3968C33.4637 86.1659 33.7944 87.4803 34.4557 88.34C35.1336 89.1998 36.1586 89.6296 37.5309 89.6296C38.9197 89.6296 39.9613 89.1915 40.6557 88.3152C41.3501 87.439 41.6973 86.1659 41.6973 84.496V75.3448C41.6973 74.7662 41.6725 74.4272 41.6229 74.328C41.5733 74.2288 41.4162 74.1627 41.1517 74.1296L39.7877 74.0056ZM65.4745 89.5552V90.2H59.4977V89.5552L60.8617 89.4064C61.1262 89.3734 61.2833 89.3072 61.3329 89.208C61.3825 89.0923 61.4073 88.7534 61.4073 88.1912V74.7496L56.2489 88.216H54.5625L49.3793 74.7496V88.1912C49.3793 88.7534 49.4041 89.0923 49.4537 89.208C49.5033 89.3072 49.6604 89.3734 49.9249 89.4064L51.2889 89.5552V90.2H46.5521V89.5552L47.9161 89.4064C48.1806 89.3734 48.3377 89.3072 48.3873 89.208C48.4369 89.0923 48.4617 88.7534 48.4617 88.1912V75.3448C48.4617 74.7827 48.4369 74.452 48.3873 74.3528C48.3377 74.2371 48.1806 74.1627 47.9161 74.1296L46.5521 74.0056V73.336H51.0905L56.0753 86.356L61.0601 73.336H65.4745V74.0056L64.1105 74.1296C63.846 74.1627 63.6889 74.2371 63.6393 74.3528C63.5897 74.452 63.5649 74.7827 63.5649 75.3448V88.1912C63.5649 88.7534 63.5897 89.0923 63.6393 89.208C63.6889 89.3072 63.846 89.3734 64.1105 89.4064L65.4745 89.5552ZM67.8888 74.0056V73.336H73.8656V74.0056L72.5016 74.1296C72.2371 74.1627 72.08 74.2288 72.0304 74.328C71.9808 74.4272 71.956 74.7662 71.956 75.3448V88.1912C71.956 88.7699 71.9808 89.1088 72.0304 89.208C72.08 89.3072 72.2371 89.3734 72.5016 89.4064L73.8656 89.5552V90.2H67.8888V89.5552L69.2528 89.4064C69.5173 89.3734 69.6744 89.3072 69.724 89.208C69.7736 89.1088 69.7984 88.7699 69.7984 88.1912V75.3448C69.7984 74.7662 69.7736 74.4272 69.724 74.328C69.6744 74.2288 69.5173 74.1627 69.2528 74.1296L67.8888 74.0056ZM86.4867 74.0056V73.336H91.2235V74.0056L89.8595 74.1296C89.5949 74.1627 89.4379 74.2371 89.3883 74.3528C89.3387 74.452 89.3139 74.7827 89.3139 75.3448V90.2H88.0987L79.0715 74.9728V88.1912C79.0715 88.7534 79.0963 89.0923 79.1459 89.208C79.1955 89.3072 79.3525 89.3734 79.6171 89.4064L80.9811 89.5552V90.2H76.2443V89.5552L77.6083 89.4064C77.8728 89.3734 78.0299 89.3072 78.0795 89.208C78.1291 89.0923 78.1539 88.7534 78.1539 88.1912V75.3448C78.1539 74.7827 78.1291 74.452 78.0795 74.3528C78.0299 74.2371 77.8728 74.1627 77.6083 74.1296L76.2443 74.0056V73.336H80.5347L88.3963 86.6288V75.3448C88.3963 74.7827 88.3715 74.452 88.3219 74.3528C88.2723 74.2371 88.1152 74.1627 87.8507 74.1296L86.4867 74.0056ZM96.6694 89.5552V90.2H91.9574V89.5552L93.2966 89.4064C93.4785 89.3899 93.6107 89.3651 93.6934 89.332C93.7761 89.2824 93.8505 89.1832 93.9166 89.0344C93.9993 88.8691 94.0985 88.588 94.2142 88.1912L99.0006 73.336H100.563L105.399 88.1912C105.515 88.588 105.606 88.8691 105.672 89.0344C105.754 89.1832 105.837 89.2824 105.92 89.332C106.002 89.3651 106.126 89.3899 106.292 89.4064L107.656 89.5552V90.2H101.629V89.5552L102.993 89.4064C103.258 89.3734 103.398 89.3072 103.415 89.208C103.448 89.0923 103.374 88.7534 103.192 88.1912L102.175 85.0168H96.1238L95.107 88.1912C94.9251 88.7534 94.8425 89.0923 94.859 89.208C94.8921 89.3072 95.0409 89.3734 95.3054 89.4064L96.6694 89.5552ZM96.3718 84.2232H101.927L99.1494 75.5928L96.3718 84.2232Z" fill="white"/>
</g>
<g filter="url(#filter5_d_640_63)">
<path d="M35.8998 99.732L34.511 104.94H33.705L32.0806 99.8188L30.4562 104.94H29.6874L28.311 99.732C28.2532 99.4923 28.2036 99.3476 28.1622 99.298C28.1292 99.2484 28.0465 99.2154 27.9142 99.1988L27.2818 99.1368V98.802H30.0966V99.1368L29.4518 99.1988C29.3196 99.2154 29.2452 99.2484 29.2286 99.298C29.2204 99.3476 29.2493 99.4923 29.3154 99.732L30.3818 103.824L31.9566 98.802H32.7626L34.3622 103.898L35.441 99.732C35.5072 99.4923 35.532 99.3476 35.5154 99.298C35.5072 99.2484 35.4369 99.2154 35.3046 99.1988L34.6598 99.1368V98.802H36.929V99.1368L36.2966 99.1988C36.1726 99.2154 36.09 99.2484 36.0486 99.298C36.0156 99.3476 35.966 99.4923 35.8998 99.732ZM42.89 101.741V101.989C42.89 102.923 42.6544 103.671 42.1832 104.233C41.7202 104.787 41.0589 105.064 40.1992 105.064C39.3477 105.064 38.6864 104.787 38.2152 104.233C37.7522 103.671 37.5208 102.923 37.5208 101.989V101.741C37.5208 100.815 37.7522 100.075 38.2152 99.5212C38.6781 98.9591 39.3394 98.678 40.1992 98.678C41.0589 98.678 41.7202 98.9591 42.1832 99.5212C42.6544 100.075 42.89 100.815 42.89 101.741ZM41.774 101.493C41.774 100.633 41.6376 100.017 41.3648 99.6452C41.1002 99.265 40.7117 99.0748 40.1992 99.0748C39.6949 99.0748 39.3064 99.265 39.0336 99.6452C38.769 100.017 38.6368 100.633 38.6368 101.493V102.237C38.6368 103.105 38.769 103.729 39.0336 104.109C39.3064 104.481 39.6949 104.667 40.1992 104.667C40.7117 104.667 41.1002 104.481 41.3648 104.109C41.6376 103.729 41.774 103.105 41.774 102.237V101.493ZM50.8959 104.618V104.94H47.9695V104.618L48.6515 104.543C48.7838 104.527 48.8623 104.494 48.8871 104.444C48.9119 104.394 48.9243 104.225 48.9243 103.936V100.848C48.9243 100.236 48.8292 99.8064 48.6391 99.5584C48.4572 99.3022 48.1886 99.174 47.8331 99.174C47.5768 99.174 47.2875 99.2567 46.9651 99.422C46.651 99.5874 46.3492 99.9056 46.0599 100.377V103.936C46.0599 104.225 46.0723 104.394 46.0971 104.444C46.1219 104.494 46.2004 104.527 46.3327 104.543L47.0147 104.618V104.94H44.0883V104.618L44.7703 104.543C44.9026 104.527 44.9811 104.494 45.0059 104.444C45.0307 104.394 45.0431 104.225 45.0431 103.936V99.8064C45.0431 99.5171 45.0307 99.3476 45.0059 99.298C44.9811 99.2484 44.9026 99.2154 44.7703 99.1988L44.0883 99.1368V98.802H45.9979V99.8064C46.2872 99.4179 46.6138 99.1327 46.9775 98.9508C47.3495 98.769 47.7174 98.678 48.0811 98.678C48.9739 98.678 49.5484 99.0872 49.8047 99.9056C50.1106 99.4758 50.4495 99.1658 50.8215 98.9756C51.2018 98.7772 51.582 98.678 51.9623 98.678C52.5492 98.678 53.0039 98.8682 53.3263 99.2484C53.657 99.6204 53.8223 100.149 53.8223 100.836V103.936C53.8223 104.225 53.8347 104.394 53.8595 104.444C53.8843 104.494 53.9628 104.527 54.0951 104.543L54.7771 104.618V104.94H51.8507V104.618L52.5327 104.543C52.665 104.527 52.7435 104.494 52.7683 104.444C52.7931 104.394 52.8055 104.225 52.8055 103.936V100.848C52.8055 100.236 52.7104 99.8064 52.5203 99.5584C52.3384 99.3022 52.0698 99.174 51.7143 99.174C51.458 99.174 51.1646 99.2608 50.8339 99.4344C50.5115 99.5998 50.2056 99.9263 49.9163 100.414C49.9246 100.48 49.9287 100.55 49.9287 100.625C49.937 100.691 49.9411 100.761 49.9411 100.836V103.936C49.9411 104.225 49.9535 104.394 49.9783 104.444C50.0031 104.494 50.0816 104.527 50.2139 104.543L50.8959 104.618ZM60.7777 103.526C60.6289 104.089 60.3479 104.485 59.9345 104.717C59.5295 104.948 59.0789 105.064 58.5829 105.064C57.6653 105.064 56.9792 104.787 56.5245 104.233C56.0699 103.671 55.8425 102.923 55.8425 101.989V101.741C55.8425 100.815 56.0616 100.075 56.4997 99.5212C56.9379 98.9591 57.5744 98.678 58.4093 98.678C58.8557 98.678 59.2608 98.769 59.6245 98.9508C59.9965 99.1327 60.29 99.4014 60.5049 99.7568C60.7281 100.112 60.8397 100.555 60.8397 101.084C60.8397 101.332 60.8149 101.592 60.7653 101.865H56.9585V102.237C56.9585 103.105 57.0908 103.729 57.3553 104.109C57.6281 104.481 58.0663 104.667 58.6697 104.667C59.05 104.667 59.3641 104.568 59.6121 104.37C59.8684 104.171 60.0379 103.828 60.1205 103.34L60.7777 103.526ZM58.4093 99.0748C57.9216 99.0748 57.5579 99.2608 57.3181 99.6328C57.0784 100.005 56.9585 100.617 56.9585 101.468H59.7485V101.431C59.7651 101.323 59.7775 101.22 59.7857 101.121C59.794 101.013 59.7981 100.918 59.7981 100.836C59.7981 100.216 59.67 99.7692 59.4137 99.4964C59.1575 99.2154 58.8227 99.0748 58.4093 99.0748ZM68.9418 104.618V104.94H66.0154V104.618L66.6974 104.543C66.8296 104.527 66.9082 104.494 66.933 104.444C66.9578 104.394 66.9702 104.225 66.9702 103.936V100.848C66.9702 100.236 66.871 99.8064 66.6726 99.5584C66.4742 99.3022 66.189 99.174 65.817 99.174C65.5442 99.174 65.2424 99.2567 64.9118 99.422C64.5811 99.5874 64.2711 99.9098 63.9818 100.389V103.936C63.9818 104.225 63.9942 104.394 64.019 104.444C64.0438 104.494 64.1223 104.527 64.2546 104.543L64.9366 104.618V104.94H62.0102V104.618L62.6922 104.543C62.8244 104.527 62.903 104.494 62.9278 104.444C62.9526 104.394 62.965 104.225 62.965 103.936V99.8064C62.965 99.5171 62.9526 99.3476 62.9278 99.298C62.903 99.2484 62.8244 99.2154 62.6922 99.1988L62.0102 99.1368V98.802H63.9198V99.8064C64.2174 99.4096 64.5522 99.1244 64.9242 98.9508C65.3044 98.769 65.6847 98.678 66.065 98.678C66.6767 98.678 67.1479 98.8682 67.4786 99.2484C67.8175 99.6204 67.987 100.149 67.987 100.836V103.936C67.987 104.225 67.9994 104.394 68.0242 104.444C68.049 104.494 68.1275 104.527 68.2598 104.543L68.9418 104.618ZM78.2511 105.659C78.2511 106.321 78.0072 106.825 77.5195 107.172C77.04 107.527 76.3704 107.705 75.5107 107.705C74.5683 107.705 73.878 107.54 73.4399 107.209C73.0017 106.887 72.7744 106.478 72.7579 105.982L73.6755 105.796C73.6424 106.25 73.7623 106.614 74.0351 106.887C74.3161 107.168 74.808 107.308 75.5107 107.308C76.1389 107.308 76.6432 107.193 77.0235 106.961C77.412 106.73 77.6063 106.391 77.6063 105.944C77.6063 105.614 77.4947 105.366 77.2715 105.2C77.0483 105.035 76.6804 104.952 76.1679 104.952H74.6923C74.1384 104.952 73.7499 104.837 73.5267 104.605C73.3035 104.365 73.1919 104.101 73.1919 103.812C73.1919 103.572 73.2497 103.349 73.3655 103.142C73.4895 102.927 73.6837 102.716 73.9483 102.51C73.6176 102.353 73.3489 102.125 73.1423 101.828C72.9356 101.522 72.8323 101.154 72.8323 100.724C72.8323 100.269 72.9356 99.8932 73.1423 99.5956C73.3572 99.2898 73.6383 99.0624 73.9855 98.9136C74.3409 98.7566 74.7336 98.678 75.1635 98.678H75.3743C75.8289 98.678 76.234 98.7607 76.5895 98.926L78.3875 98.306L78.5239 99.236H77.0731C77.2632 99.4014 77.412 99.608 77.5195 99.856C77.6352 100.104 77.6931 100.393 77.6931 100.724C77.6931 101.162 77.5856 101.534 77.3707 101.84C77.164 102.146 76.8871 102.377 76.5399 102.534C76.1927 102.683 75.8041 102.758 75.3743 102.758H75.1635C75.0229 102.758 74.8865 102.749 74.7543 102.733C74.622 102.716 74.4939 102.691 74.3699 102.658C74.188 102.782 74.0557 102.911 73.9731 103.043C73.8987 103.175 73.8615 103.311 73.8615 103.452C73.8615 103.617 73.9193 103.75 74.0351 103.849C74.1591 103.948 74.3533 103.998 74.6179 103.998H76.2299C76.8829 103.998 77.3831 104.138 77.7303 104.419C78.0775 104.7 78.2511 105.114 78.2511 105.659ZM75.3743 102.361C75.5975 102.361 75.8 102.311 75.9819 102.212C76.172 102.113 76.3249 101.947 76.4407 101.716C76.5564 101.476 76.6143 101.146 76.6143 100.724C76.6143 100.294 76.5564 99.9635 76.4407 99.732C76.3249 99.4923 76.172 99.3228 75.9819 99.2236C75.8 99.1244 75.5975 99.0748 75.3743 99.0748H75.1635C74.9403 99.0748 74.7336 99.1244 74.5435 99.2236C74.3533 99.3228 74.2004 99.4923 74.0847 99.732C73.9689 99.9635 73.9111 100.294 73.9111 100.724C73.9111 101.146 73.9689 101.476 74.0847 101.716C74.2004 101.947 74.3533 102.113 74.5435 102.212C74.7336 102.311 74.9403 102.361 75.1635 102.361H75.3743ZM82.2072 105.56C82.0253 106.064 81.8269 106.473 81.612 106.788C81.397 107.11 81.1408 107.341 80.8432 107.482C80.5456 107.631 80.1736 107.705 79.7272 107.705V106.713C80.3224 106.713 80.7729 106.618 81.0788 106.428C81.3846 106.246 81.6285 105.903 81.8104 105.399L81.9716 104.94H81.612L79.7892 99.732C79.7065 99.4923 79.6445 99.3518 79.6032 99.3104C79.5618 99.2608 79.475 99.2278 79.3428 99.2112L78.7104 99.1368V98.802H81.5376V99.1368L80.9052 99.2112C80.7894 99.2195 80.7233 99.2484 80.7068 99.298C80.6902 99.3476 80.7233 99.4923 80.806 99.732L82.294 104.022L83.7944 99.7196C83.8688 99.4799 83.8977 99.3394 83.8812 99.298C83.8729 99.2567 83.8068 99.2278 83.6828 99.2112L83.038 99.1368V98.802H85.3072V99.1368L84.6748 99.2112C84.5508 99.2278 84.4681 99.2567 84.4268 99.298C84.3854 99.3394 84.3234 99.4799 84.2408 99.7196L82.2072 105.56ZM92.5279 104.618V104.94H89.6015V104.618L90.2835 104.543C90.4158 104.527 90.4943 104.494 90.5191 104.444C90.5439 104.394 90.5563 104.225 90.5563 103.936V100.848C90.5563 100.236 90.4613 99.8064 90.2711 99.5584C90.0893 99.3022 89.8206 99.174 89.4651 99.174C89.2089 99.174 88.9195 99.2567 88.5971 99.422C88.283 99.5874 87.9813 99.9056 87.6919 100.377V103.936C87.6919 104.225 87.7043 104.394 87.7291 104.444C87.7539 104.494 87.8325 104.527 87.9647 104.543L88.6467 104.618V104.94H85.7203V104.618L86.4023 104.543C86.5346 104.527 86.6131 104.494 86.6379 104.444C86.6627 104.394 86.6751 104.225 86.6751 103.936V99.8064C86.6751 99.5171 86.6627 99.3476 86.6379 99.298C86.6131 99.2484 86.5346 99.2154 86.4023 99.1988L85.7203 99.1368V98.802H87.6299V99.8064C87.9193 99.4179 88.2458 99.1327 88.6095 98.9508C88.9815 98.769 89.3494 98.678 89.7131 98.678C90.6059 98.678 91.1805 99.0872 91.4367 99.9056C91.7426 99.4758 92.0815 99.1658 92.4535 98.9756C92.8338 98.7772 93.2141 98.678 93.5943 98.678C94.1813 98.678 94.6359 98.8682 94.9583 99.2484C95.289 99.6204 95.4543 100.149 95.4543 100.836V103.936C95.4543 104.225 95.4667 104.394 95.4915 104.444C95.5163 104.494 95.5949 104.527 95.7271 104.543L96.4091 104.618V104.94H93.4827V104.618L94.1647 104.543C94.297 104.527 94.3755 104.494 94.4003 104.444C94.4251 104.394 94.4375 104.225 94.4375 103.936V100.848C94.4375 100.236 94.3425 99.8064 94.1523 99.5584C93.9705 99.3022 93.7018 99.174 93.3463 99.174C93.0901 99.174 92.7966 99.2608 92.4659 99.4344C92.1435 99.5998 91.8377 99.9263 91.5483 100.414C91.5566 100.48 91.5607 100.55 91.5607 100.625C91.569 100.691 91.5731 100.761 91.5731 100.836V103.936C91.5731 104.225 91.5855 104.394 91.6103 104.444C91.6351 104.494 91.7137 104.527 91.8459 104.543L92.5279 104.618Z" fill="white"/>
</g>
<defs>
<filter id="filter0_d_640_63" x="18.5395" y="36.1718" width="15.001" height="15.001" filterUnits="userSpaceOnUse" color-interpolation-filters="sRGB">
<feFlood flood-opacity="0" result="BackgroundImageFix"/>
<feColorMatrix in="SourceAlpha" type="matrix" values="0 0 0 0 0 0 0 0 0 0 0 0 0 0 0 0 0 0 127 0" result="hardAlpha"/>
<feOffset dy="1.5122"/>
<feGaussianBlur stdDeviation="1.89024"/>
<feComposite in2="hardAlpha" operator="out"/>
<feColorMatrix type="matrix" values="0 0 0 0 0 0 0 0 0 0 0 0 0 0 0 0 0 0 0.25 0"/>
<feBlend mode="normal" in2="BackgroundImageFix" result="effect1_dropShadow_640_63"/>
<feBlend mode="normal" in="SourceGraphic" in2="effect1_dropShadow_640_63" result="shape"/>
</filter>
<filter id="filter1_d_640_63" x="27.663" y="13.3093" width="53.7938" height="58.246" filterUnits="userSpaceOnUse" color-interpolation-filters="sRGB">
<feFlood flood-opacity="0" result="BackgroundImageFix"/>
<feColorMatrix in="SourceAlpha" type="matrix" values="0 0 0 0 0 0 0 0 0 0 0 0 0 0 0 0 0 0 127 0" result="hardAlpha"/>
<feOffset dy="1.5122"/>
<feGaussianBlur stdDeviation="1.89024"/>
<feComposite in2="hardAlpha" operator="out"/>
<feColorMatrix type="matrix" values="0 0 0 0 0 0 0 0 0 0 0 0 0 0 0 0 0 0 0.25 0"/>
<feBlend mode="normal" in2="BackgroundImageFix" result="effect1_dropShadow_640_63"/>
<feBlend mode="normal" in="SourceGraphic" in2="effect1_dropShadow_640_63" result="shape"/>
</filter>
<filter id="filter2_d_640_63" x="82.083" y="13.8518" width="19.3541" height="18.7769" filterUnits="userSpaceOnUse" color-interpolation-filters="sRGB">
<feFlood flood-opacity="0" result="BackgroundImageFix"/>
<feColorMatrix in="SourceAlpha" type="matrix" values="0 0 0 0 0 0 0 0 0 0 0 0 0 0 0 0 0 0 127 0" result="hardAlpha"/>
<feOffset dy="1.5122"/>
<feGaussianBlur stdDeviation="1.89024"/>
<feComposite in2="hardAlpha" operator="out"/>
<feColorMatrix type="matrix" values="0 0 0 0 0 0 0 0 0 0 0 0 0 0 0 0 0 0 0.25 0"/>
<feBlend mode="normal" in2="BackgroundImageFix" result="effect1_dropShadow_640_63"/>
<feBlend mode="normal" in="SourceGraphic" in2="effect1_dropShadow_640_63" result="shape"/>
</filter>
<filter id="filter3_d_640_63" x="70.8776" y="53.2983" width="17.5851" height="17.0945" filterUnits="userSpaceOnUse" color-interpolation-filters="sRGB">
<feFlood flood-opacity="0" result="BackgroundImageFix"/>
<feColorMatrix in="SourceAlpha" type="matrix" values="0 0 0 0 0 0 0 0 0 0 0 0 0 0 0 0 0 0 127 0" result="hardAlpha"/>
<feOffset dy="1.5122"/>
<feGaussianBlur stdDeviation="1.89024"/>
<feComposite in2="hardAlpha" operator="out"/>
<feColorMatrix type="matrix" values="0 0 0 0 0 0 0 0 0 0 0 0 0 0 0 0 0 0 0.25 0"/>
<feBlend mode="normal" in2="BackgroundImageFix" result="effect1_dropShadow_640_63"/>
<feBlend mode="normal" in="SourceGraphic" in2="effect1_dropShadow_640_63" result="shape"/>
</filter>
<filter id="filter4_d_640_63" x="13.8302" y="71.0677" width="97.6061" height="24.673" filterUnits="userSpaceOnUse" color-interpolation-filters="sRGB">
<feFlood flood-opacity="0" result="BackgroundImageFix"/>
<feColorMatrix in="SourceAlpha" type="matrix" values="0 0 0 0 0 0 0 0 0 0 0 0 0 0 0 0 0 0 127 0" result="hardAlpha"/>
<feOffset dy="1.5122"/>
<feGaussianBlur stdDeviation="1.89024"/>
<feComposite in2="hardAlpha" operator="out"/>
<feColorMatrix type="matrix" values="0 0 0 0 0 0 0 0 0 0 0 0 0 0 0 0 0 0 0.25 0"/>
<feBlend mode="normal" in2="BackgroundImageFix" result="effect1_dropShadow_640_63"/>
<feBlend mode="normal" in="SourceGraphic" in2="effect1_dropShadow_640_63" result="shape"/>
</filter>
<filter id="filter5_d_640_63" x="23.5013" y="96.0377" width="76.6883" height="16.9602" filterUnits="userSpaceOnUse" color-interpolation-filters="sRGB">
<feFlood flood-opacity="0" result="BackgroundImageFix"/>
<feColorMatrix in="SourceAlpha" type="matrix" values="0 0 0 0 0 0 0 0 0 0 0 0 0 0 0 0 0 0 127 0" result="hardAlpha"/>
<feOffset dy="1.5122"/>
<feGaussianBlur stdDeviation="1.89024"/>
<feComposite in2="hardAlpha" operator="out"/>
<feColorMatrix type="matrix" values="0 0 0 0 0 0 0 0 0 0 0 0 0 0 0 0 0 0 0.25 0"/>
<feBlend mode="normal" in2="BackgroundImageFix" result="effect1_dropShadow_640_63"/>
<feBlend mode="normal" in="SourceGraphic" in2="effect1_dropShadow_640_63" result="shape"/>
</filter>
</defs>
</svg>
