<svg width="463" height="80" viewBox="0 0 463 80" fill="none" xmlns="http://www.w3.org/2000/svg">
<path d="M28.7662 55.848C25.2462 55.848 22.1742 55.304 19.5502 54.216C16.9582 53.128 14.9422 51.64 13.5022 49.752C12.0942 47.832 11.3902 45.656 11.3902 43.224C11.3902 41.24 11.7422 39.432 12.4462 37.8C13.1502 36.168 14.0782 34.808 15.2302 33.72C16.4142 32.632 17.7102 31.912 19.1182 31.56C19.3422 31.528 19.4542 31.608 19.4542 31.8C19.4542 31.96 19.3742 32.088 19.2142 32.184C17.5502 33.176 16.2702 34.6 15.3742 36.456C14.5102 38.312 14.0782 40.376 14.0782 42.648C14.0782 45.112 14.7182 47.24 15.9982 49.032C17.2782 50.792 19.0222 52.136 21.2302 53.064C23.4702 54.024 25.9822 54.504 28.7662 54.504C31.1662 54.504 33.4382 54.072 35.5822 53.208C37.7582 52.376 39.7582 51.224 41.5822 49.752C43.4062 48.28 45.0382 46.616 46.4782 44.76C47.9502 42.872 49.1822 40.904 50.1742 38.856C50.3982 38.376 50.6222 37.912 50.8462 37.464C51.0702 37.016 51.2942 36.568 51.5182 36.12C50.7502 36.088 50.0462 36.056 49.4062 36.024C48.7982 35.992 48.3822 35.976 48.1582 35.976C47.2942 35.976 46.3662 36.04 45.3742 36.168C44.4142 36.264 43.5022 36.472 42.6382 36.792C41.8062 37.112 41.1182 37.608 40.5742 38.28C40.3502 38.504 40.2062 38.68 40.1422 38.808C40.1102 38.936 40.0462 39 39.9502 39C39.8222 39 39.7102 38.904 39.6142 38.712C39.5182 38.488 39.5342 38.248 39.6622 37.992C40.3982 36.36 41.4382 35.256 42.7822 34.68C44.1262 34.072 45.6302 33.768 47.2942 33.768C47.6462 33.768 48.3022 33.832 49.2622 33.96C50.2542 34.056 51.2942 34.168 52.3822 34.296C53.7902 31.448 55.0702 28.872 56.2222 26.568C57.4062 24.264 58.5102 22.344 59.5342 20.808C57.2302 20.04 54.7822 19.368 52.1902 18.792C49.5982 18.184 46.8142 17.88 43.8382 17.88C41.6302 17.88 39.6302 18.184 37.8382 18.792C36.0462 19.4 34.5102 20.216 33.2302 21.24C31.9822 22.264 31.0222 23.4 30.3502 24.648C29.6782 25.896 29.3422 27.144 29.3422 28.392C29.3422 29.8 29.6142 30.92 30.1582 31.752C30.7022 32.584 31.4062 33.192 32.2702 33.576C33.1662 33.928 34.0782 34.104 35.0062 34.104C36.3822 34.104 37.5502 33.768 38.5102 33.096C39.5022 32.424 40.2862 31.672 40.8622 30.84C41.4382 29.976 41.7902 29.272 41.9182 28.728C42.0462 28.216 42.2382 27.96 42.4942 27.96C42.8782 27.96 43.0382 28.184 42.9742 28.632C42.7822 30.04 42.2862 31.256 41.4862 32.28C40.6862 33.304 39.7102 34.088 38.5582 34.632C37.4062 35.144 36.1902 35.4 34.9102 35.4C33.5982 35.4 32.3342 35.08 31.1182 34.44C29.9022 33.8 28.9102 32.872 28.1422 31.656C27.3742 30.44 26.9902 28.968 26.9902 27.24C26.9902 25.832 27.2942 24.44 27.9022 23.064C28.5422 21.656 29.4862 20.376 30.7342 19.224C32.0142 18.04 33.6302 17.096 35.5822 16.392C37.5342 15.688 39.8382 15.336 42.4942 15.336C44.3822 15.336 46.3182 15.56 48.3022 16.008C50.2862 16.424 52.2862 16.968 54.3022 17.64C56.3502 18.28 58.3662 18.952 60.3502 19.656C61.0222 18.792 61.6622 18.136 62.2702 17.688C62.8782 17.208 63.4862 16.968 64.0942 16.968C64.3502 16.968 64.5262 17.032 64.6222 17.16C64.7182 17.256 64.7662 17.352 64.7662 17.448C64.7662 17.576 64.7182 17.72 64.6222 17.88C64.5262 18.04 64.3502 18.12 64.0942 18.12C63.0382 18.12 62.0462 18.712 61.1182 19.896C63.4222 20.664 65.6302 21.352 67.7422 21.96C69.8862 22.536 71.8702 22.824 73.6942 22.824C75.1022 22.824 76.0302 22.68 76.4782 22.392C76.9262 22.072 77.1502 21.64 77.1502 21.096C77.1502 20.744 77.2622 20.568 77.4862 20.568C77.6462 20.568 77.7902 20.68 77.9182 20.904C78.0782 21.096 78.1582 21.336 78.1582 21.624C78.1582 22.392 77.7262 23.016 76.8622 23.496C76.0302 23.976 74.8622 24.216 73.3582 24.216C71.3742 24.216 69.3102 23.896 67.1662 23.256C65.0222 22.584 62.7502 21.848 60.3502 21.048C59.4862 22.488 58.6382 24.376 57.8062 26.712C56.9742 29.016 55.9982 31.624 54.8782 34.536C56.2542 34.664 57.7102 34.776 59.2462 34.872C60.7822 34.936 62.0302 34.968 62.9902 34.968C63.3102 34.968 63.4702 35.064 63.4702 35.256C63.4702 35.512 63.1022 35.736 62.3662 35.928C61.8862 36.056 61.0702 36.152 59.9182 36.216C58.7982 36.28 57.6302 36.312 56.4142 36.312C56.1582 36.312 55.8382 36.312 55.4542 36.312C55.0702 36.28 54.6542 36.264 54.2062 36.264C53.9182 37 53.6142 37.752 53.2942 38.52C53.0062 39.256 52.6862 40.024 52.3342 40.824C50.9902 43.992 49.3422 46.568 47.3902 48.552C45.4702 50.504 43.4062 52.008 41.1982 53.064C39.0222 54.152 36.8462 54.888 34.6702 55.272C32.5262 55.656 30.5582 55.848 28.7662 55.848ZM78.5489 51.144C77.3649 51.144 76.4849 50.792 75.9089 50.088C75.3649 49.352 75.0929 48.488 75.0929 47.496C75.0929 46.472 75.2369 45.416 75.5249 44.328C75.8129 43.24 76.0689 42.328 76.2929 41.592C76.8049 39.8 77.4449 37.896 78.2129 35.88C79.0129 33.832 79.8769 31.832 80.8049 29.88C81.7649 27.896 82.7089 26.12 83.6369 24.552C84.3729 23.304 85.1569 22.376 85.9889 21.768C86.8529 21.128 87.6049 20.808 88.2449 20.808C88.7569 20.808 89.1569 21 89.4449 21.384C89.7649 21.736 89.9249 22.28 89.9249 23.016C89.9249 23.528 89.8289 24.136 89.6369 24.84C89.4769 25.544 89.1889 26.344 88.7729 27.24C87.6529 29.736 86.3089 32.232 84.7409 34.728C83.2049 37.224 81.2529 39.56 78.8849 41.736C78.5009 42.632 78.1809 43.592 77.9249 44.616C77.6689 45.64 77.5409 46.472 77.5409 47.112C77.5409 49.096 78.2129 50.088 79.5569 50.088C80.5809 50.088 81.7169 49.352 82.9649 47.88C84.2129 46.376 85.3969 44.328 86.5169 41.736C86.6449 41.736 86.7729 41.768 86.9009 41.832C87.0289 41.864 87.0929 41.976 87.0929 42.168C86.7409 43.032 86.2929 43.992 85.7489 45.048C85.2369 46.072 84.6289 47.048 83.9249 47.976C83.2529 48.904 82.4689 49.672 81.5729 50.28C80.6769 50.856 79.6689 51.144 78.5489 51.144ZM79.2689 40.2C80.4209 39.016 81.5409 37.656 82.6289 36.12C83.7169 34.552 84.7249 32.936 85.6529 31.272C86.6129 29.576 87.4129 27.976 88.0529 26.472C88.2769 25.992 88.4529 25.464 88.5809 24.888C88.7409 24.312 88.8209 23.832 88.8209 23.448C88.8209 23 88.7089 22.776 88.4849 22.776C88.3569 22.776 88.1649 22.904 87.9089 23.16C87.6529 23.384 87.3169 23.784 86.9009 24.36C86.2929 25.16 85.6209 26.248 84.8849 27.624C84.1809 29 83.4609 30.472 82.7249 32.04C81.9889 33.608 81.3169 35.128 80.7089 36.6C80.1009 38.04 79.6209 39.24 79.2689 40.2ZM98.9917 51C97.6797 51 96.7037 50.536 96.0637 49.608C95.4557 48.648 95.1517 47.496 95.1517 46.152C95.1517 44.904 95.3917 43.608 95.8717 42.264C96.3837 40.792 97.0877 39.448 97.9837 38.232C98.9117 37.016 99.9197 36.04 101.008 35.304C102.128 34.536 103.232 34.152 104.32 34.152C105.632 34.152 106.592 34.6 107.2 35.496C107.84 36.392 108.16 37.528 108.16 38.904C108.16 39.864 108 40.872 107.68 41.928C107.36 42.984 106.928 44.024 106.384 45.048C106.8 45.464 107.392 45.672 108.16 45.672C109.056 45.672 109.824 45.384 110.464 44.808C111.104 44.232 111.728 43.208 112.336 41.736C112.72 41.736 112.912 41.88 112.912 42.168C112.304 43.64 111.6 44.728 110.8 45.432C110.032 46.104 109.04 46.424 107.824 46.392C107.088 46.392 106.48 46.184 106 45.768C105.104 47.24 104.032 48.488 102.784 49.512C101.568 50.504 100.304 51 98.9917 51ZM99.6637 49.944C100.4 49.944 101.136 49.64 101.872 49.032C102.608 48.392 103.28 47.672 103.888 46.872C104.496 46.072 104.928 45.384 105.184 44.808C104.672 43.88 104.368 43.192 104.272 42.744C104.208 42.264 104.176 41.912 104.176 41.688C104.176 41.08 104.336 40.616 104.656 40.296C104.976 39.976 105.296 39.816 105.616 39.816C106.064 39.816 106.448 40.008 106.768 40.392C106.832 40.04 106.88 39.72 106.912 39.432C106.944 39.112 106.96 38.808 106.96 38.52C106.96 37.688 106.8 37.016 106.48 36.504C106.192 35.96 105.728 35.688 105.088 35.688C104.416 35.688 103.712 35.976 102.976 36.552C102.24 37.128 101.536 37.896 100.864 38.856C100.224 39.816 99.6637 40.888 99.1837 42.072C98.7677 43.064 98.4477 44.008 98.2237 44.904C97.9997 45.768 97.8877 46.568 97.8877 47.304C97.8877 48.104 98.0317 48.744 98.3197 49.224C98.6077 49.704 99.0557 49.944 99.6637 49.944ZM132.49 51.096C132.298 51.096 132.122 51.08 131.962 51.048C131.834 51.048 131.658 51.032 131.434 51C130.634 50.84 130.074 50.408 129.754 49.704C129.466 48.968 129.322 48.184 129.322 47.352C129.322 46.84 129.354 46.344 129.418 45.864C129.514 45.352 129.626 44.904 129.754 44.52C129.466 45.032 129.098 45.656 128.65 46.392C128.202 47.096 127.69 47.8 127.114 48.504C126.538 49.208 125.93 49.8 125.29 50.28C124.65 50.76 123.994 51 123.322 51C122.65 51 122.026 50.808 121.45 50.424C120.874 50.04 120.506 49.496 120.346 48.792C120.314 48.632 120.282 48.488 120.25 48.36C120.25 48.2 120.25 48.056 120.25 47.928C120.25 47.096 120.474 46.248 120.922 45.384C121.37 44.52 121.898 43.448 122.506 42.168C122.346 42.168 122.202 42.152 122.074 42.12C121.978 42.088 121.93 41.96 121.93 41.736C122.666 40.072 123.29 38.728 123.802 37.704C124.346 36.648 124.746 35.896 125.002 35.448C125.418 34.744 126.074 34.392 126.97 34.392H129.946C129.402 34.808 128.906 35.272 128.458 35.784C128.042 36.264 127.514 37.16 126.874 38.472C126.874 38.472 126.762 38.696 126.538 39.144C126.314 39.592 126.026 40.152 125.674 40.824C125.354 41.496 125.018 42.184 124.666 42.888C124.346 43.592 124.074 44.2 123.85 44.712C123.53 45.416 123.29 46.072 123.13 46.68C122.97 47.288 122.89 47.816 122.89 48.264C122.89 49.384 123.258 49.944 123.994 49.944C124.506 49.944 125.082 49.624 125.722 48.984C126.458 48.28 127.21 47.304 127.978 46.056C128.778 44.776 129.546 43.432 130.282 42.024C131.018 40.616 131.674 39.32 132.25 38.136C132.826 36.92 133.258 36.024 133.546 35.448C133.706 35.096 133.914 34.84 134.17 34.68C134.458 34.488 134.858 34.392 135.37 34.392H138.298C138.106 34.584 137.818 34.792 137.434 35.016C137.082 35.24 136.73 35.64 136.378 36.216C135.93 36.984 135.53 37.704 135.178 38.376C134.826 39.016 134.346 39.992 133.738 41.304C133.61 41.592 133.354 42.152 132.97 42.984C132.618 43.816 132.282 44.728 131.962 45.72C131.642 46.712 131.482 47.608 131.482 48.408C131.482 48.92 131.594 49.336 131.818 49.656C132.042 49.976 132.41 50.136 132.922 50.136C133.818 50.136 134.666 49.768 135.466 49.032C136.298 48.296 137.034 47.4 137.674 46.344C138.346 45.288 138.89 44.264 139.306 43.272C139.274 43.016 139.226 42.648 139.162 42.168C139.13 41.656 139.114 41.224 139.114 40.872C139.114 38.792 139.434 37.032 140.074 35.592C140.746 34.12 141.626 33.384 142.714 33.384C143.322 33.384 143.626 33.656 143.626 34.2C143.626 34.296 143.514 34.68 143.29 35.352C143.098 35.992 142.826 36.792 142.474 37.752C142.154 38.712 141.786 39.72 141.37 40.776C140.954 41.832 140.538 42.824 140.122 43.752C140.218 44.296 140.442 44.744 140.794 45.096C141.146 45.448 141.594 45.624 142.138 45.624C142.778 45.624 143.37 45.336 143.914 44.76C144.49 44.152 145.082 43.144 145.69 41.736C146.074 41.736 146.266 41.88 146.266 42.168C145.754 43.448 145.13 44.472 144.394 45.24C143.69 46.008 142.89 46.392 141.994 46.392C140.906 46.392 140.122 45.832 139.642 44.712C138.778 46.44 137.738 47.944 136.522 49.224C135.338 50.472 133.994 51.096 132.49 51.096ZM174.443 51C173.259 51 172.427 50.664 171.947 49.992C171.467 49.288 171.227 48.488 171.227 47.592C171.227 47.112 171.275 46.632 171.371 46.152C171.499 45.64 171.643 45.176 171.803 44.76L175.019 36.552C175.115 36.296 175.163 36.072 175.163 35.88C175.163 35.56 175.083 35.288 174.923 35.064C174.763 34.808 174.651 34.632 174.587 34.536L177.227 34.44C177.707 34.408 178.043 34.472 178.235 34.632C178.459 34.76 178.571 34.92 178.571 35.112C178.571 35.304 178.459 35.656 178.235 36.168C177.915 36.936 177.483 37.896 176.939 39.048C176.395 40.2 175.851 41.384 175.307 42.6C174.795 43.816 174.347 44.952 173.963 46.008C173.611 47.064 173.435 47.88 173.435 48.456C173.435 48.872 173.531 49.224 173.723 49.512C173.947 49.8 174.315 49.944 174.827 49.944C175.499 49.944 176.155 49.688 176.795 49.176C177.467 48.632 178.091 47.944 178.667 47.112C179.243 46.28 179.771 45.384 180.251 44.424C180.763 43.464 181.195 42.568 181.547 41.736C181.931 41.736 182.123 41.88 182.123 42.168C181.803 42.968 181.387 43.88 180.875 44.904C180.363 45.928 179.771 46.904 179.099 47.832C178.459 48.728 177.739 49.48 176.939 50.088C176.171 50.696 175.339 51 174.443 51ZM178.715 31.464C178.299 31.464 177.931 31.304 177.611 30.984C177.323 30.664 177.179 30.28 177.179 29.832C177.179 29.288 177.403 28.808 177.851 28.392C178.299 27.944 178.795 27.72 179.339 27.72C179.787 27.72 180.171 27.864 180.491 28.152C180.811 28.44 180.971 28.808 180.971 29.256C180.971 29.832 180.747 30.344 180.299 30.792C179.851 31.24 179.323 31.464 178.715 31.464ZM186.529 51.384C187.681 49.048 188.785 46.744 189.841 44.472C190.897 42.168 191.985 39.976 193.105 37.896C193.745 36.744 194.289 35.944 194.737 35.496C195.185 35.016 195.777 34.776 196.513 34.776C196.769 34.776 197.041 34.824 197.329 34.92C197.617 34.984 197.905 35.016 198.193 35.016C198.385 35.016 198.529 35 198.625 34.968C198.177 35.224 197.585 35.864 196.849 36.888C196.145 37.88 195.425 39.032 194.689 40.344C193.953 41.656 193.297 42.888 192.721 44.04C193.329 43.304 193.969 42.568 194.641 41.832C195.313 41.096 196.049 40.392 196.849 39.72C197.617 39.048 198.529 38.36 199.585 37.656C200.673 36.92 201.729 36.312 202.753 35.832C203.777 35.352 204.593 35.112 205.201 35.112C205.425 35.112 205.585 35.128 205.681 35.16C205.681 35.16 205.505 35.48 205.153 36.12C204.801 36.728 204.353 37.544 203.809 38.568C203.297 39.56 202.769 40.632 202.225 41.784C201.681 42.904 201.185 43.992 200.737 45.048C200.321 46.072 200.049 46.936 199.921 47.64C199.825 48.056 199.777 48.44 199.777 48.792C199.777 49.304 199.873 49.64 200.065 49.8C200.257 49.96 200.465 50.04 200.689 50.04C201.297 50.04 201.921 49.768 202.561 49.224C203.201 48.68 203.809 47.992 204.385 47.16C204.993 46.296 205.553 45.384 206.065 44.424C206.577 43.464 207.009 42.568 207.361 41.736C207.745 41.736 207.937 41.88 207.937 42.168C207.585 43.032 207.137 43.992 206.593 45.048C206.081 46.072 205.489 47.048 204.817 47.976C204.177 48.904 203.457 49.672 202.657 50.28C201.857 50.888 200.993 51.192 200.065 51.192C199.425 51.192 198.753 50.968 198.049 50.52C197.377 50.072 197.041 49.24 197.041 48.024C197.041 47.672 197.073 47.304 197.137 46.92C197.201 46.504 197.313 46.056 197.473 45.576C197.729 44.936 198.033 44.248 198.385 43.512C198.737 42.776 199.313 41.768 200.113 40.488C200.337 40.136 200.465 39.864 200.497 39.672C200.561 39.48 200.593 39.32 200.593 39.192C200.593 38.808 200.417 38.616 200.065 38.616C199.777 38.616 199.345 38.776 198.769 39.096C198.225 39.416 197.537 39.976 196.705 40.776C195.905 41.544 194.945 42.632 193.825 44.04C192.737 45.448 191.473 47.528 190.033 50.28C189.809 50.696 189.553 50.92 189.265 50.952C189.009 50.984 188.641 51.016 188.161 51.048C187.841 51.08 187.537 51.096 187.249 51.096C186.961 51.128 186.721 51.224 186.529 51.384ZM226.891 25.656C226.475 26.264 226.011 27.032 225.499 27.96C224.987 28.888 224.507 29.784 224.059 30.648C223.643 31.512 223.323 32.168 223.099 32.616H227.515C227.515 32.744 227.451 32.952 227.323 33.24C227.227 33.528 227.019 33.736 226.699 33.864H222.523C222.139 34.728 221.691 35.768 221.179 36.984C220.699 38.2 220.219 39.464 219.739 40.776C219.291 42.088 218.907 43.32 218.587 44.472C218.299 45.592 218.155 46.504 218.155 47.208C218.155 48.168 218.283 48.888 218.539 49.368C218.795 49.816 219.259 50.04 219.931 50.04C220.795 50.04 221.627 49.624 222.427 48.792C223.227 47.928 223.979 46.856 224.683 45.576C225.419 44.296 226.059 43.016 226.603 41.736C226.987 41.736 227.179 41.88 227.179 42.168C226.827 43.032 226.395 43.976 225.883 45C225.371 46.024 224.779 47.016 224.107 47.976C223.467 48.904 222.731 49.672 221.899 50.28C221.099 50.856 220.203 51.144 219.211 51.144C217.867 51.144 216.955 50.776 216.475 50.04C215.995 49.272 215.755 48.296 215.755 47.112C215.755 46.248 215.915 45.208 216.235 43.992C216.555 42.744 216.939 41.464 217.387 40.152C217.867 38.84 218.331 37.624 218.779 36.504C219.227 35.352 219.579 34.472 219.835 33.864H216.763C216.763 33.608 216.875 33.336 217.099 33.048C217.323 32.76 217.563 32.616 217.819 32.616H220.363C220.619 32.104 220.907 31.464 221.227 30.696C221.579 29.928 222.043 29.08 222.619 28.152C223.099 27.384 223.707 26.776 224.443 26.328C225.211 25.88 226.027 25.656 226.891 25.656ZM239.092 51C237.78 51 236.804 50.536 236.164 49.608C235.556 48.648 235.252 47.496 235.252 46.152C235.252 44.904 235.492 43.608 235.972 42.264C236.484 40.792 237.188 39.448 238.084 38.232C239.012 37.016 240.02 36.04 241.108 35.304C242.228 34.536 243.332 34.152 244.42 34.152C245.732 34.152 246.692 34.6 247.3 35.496C247.94 36.392 248.26 37.528 248.26 38.904C248.26 39.864 248.1 40.872 247.78 41.928C247.46 42.984 247.028 44.024 246.484 45.048C246.9 45.464 247.492 45.672 248.26 45.672C249.156 45.672 249.924 45.384 250.564 44.808C251.204 44.232 251.828 43.208 252.436 41.736C252.82 41.736 253.012 41.88 253.012 42.168C252.404 43.64 251.7 44.728 250.9 45.432C250.132 46.104 249.14 46.424 247.924 46.392C247.188 46.392 246.58 46.184 246.1 45.768C245.204 47.24 244.132 48.488 242.884 49.512C241.668 50.504 240.404 51 239.092 51ZM239.764 49.944C240.5 49.944 241.236 49.64 241.972 49.032C242.708 48.392 243.38 47.672 243.988 46.872C244.596 46.072 245.028 45.384 245.284 44.808C244.772 43.88 244.468 43.192 244.372 42.744C244.308 42.264 244.276 41.912 244.276 41.688C244.276 41.08 244.436 40.616 244.756 40.296C245.076 39.976 245.396 39.816 245.716 39.816C246.164 39.816 246.548 40.008 246.868 40.392C246.932 40.04 246.98 39.72 247.012 39.432C247.044 39.112 247.06 38.808 247.06 38.52C247.06 37.688 246.9 37.016 246.58 36.504C246.292 35.96 245.828 35.688 245.188 35.688C244.516 35.688 243.812 35.976 243.076 36.552C242.34 37.128 241.636 37.896 240.964 38.856C240.324 39.816 239.764 40.888 239.284 42.072C238.868 43.064 238.548 44.008 238.324 44.904C238.1 45.768 237.988 46.568 237.988 47.304C237.988 48.104 238.132 48.744 238.42 49.224C238.708 49.704 239.156 49.944 239.764 49.944ZM273.21 66.312C271.546 66.312 270.362 65.976 269.658 65.304C268.954 64.664 268.602 63.896 268.602 63C268.602 61.624 269.114 60.344 270.138 59.16C271.13 58.008 272.362 57.08 273.834 56.376C275.498 55.608 277.386 54.984 279.498 54.504C281.642 54.024 283.69 53.496 285.642 52.92C286.25 51.864 286.81 50.664 287.322 49.32C287.834 47.944 288.298 46.616 288.714 45.336C289.13 44.024 289.466 42.952 289.722 42.12C289.338 42.824 288.842 43.688 288.234 44.712C287.658 45.704 287.002 46.68 286.266 47.64C285.53 48.6 284.73 49.4 283.866 50.04C283.034 50.68 282.154 51 281.226 51C280.874 51 280.442 50.92 279.93 50.76C279.45 50.6 279.018 50.312 278.634 49.896C278.282 49.448 278.106 48.792 278.106 47.928C278.106 47.096 278.362 46.184 278.874 45.192C279.386 44.168 279.898 43.16 280.41 42.168C280.25 42.168 280.106 42.152 279.978 42.12C279.882 42.088 279.834 41.96 279.834 41.736C279.93 41.544 280.122 41.128 280.41 40.488C280.698 39.848 281.018 39.144 281.37 38.376C281.754 37.608 282.09 36.936 282.378 36.36C282.73 35.624 283.114 35.112 283.53 34.824C283.978 34.536 284.41 34.392 284.826 34.392H287.802C287.578 34.584 287.29 34.808 286.938 35.064C286.618 35.288 286.314 35.64 286.026 36.12C285.162 37.592 284.41 39.016 283.77 40.392C283.13 41.736 282.442 43.176 281.706 44.712C281.354 45.448 281.098 46.12 280.938 46.728C280.778 47.336 280.698 47.864 280.698 48.312C280.698 49.368 281.05 49.896 281.754 49.896C282.522 49.896 283.45 49.272 284.538 48.024C285.434 46.968 286.33 45.72 287.226 44.28C288.154 42.808 289.034 41.304 289.866 39.768C290.73 38.2 291.482 36.76 292.122 35.448C292.474 34.744 293.098 34.392 293.994 34.392H296.634C295.706 35.032 294.986 35.864 294.474 36.888C293.994 37.912 293.45 39.224 292.842 40.824C292.17 42.584 291.53 44.408 290.922 46.296C290.314 48.184 289.642 50.12 288.906 52.104C290.474 51.56 291.786 50.856 292.842 49.992C293.898 49.128 294.826 48.024 295.626 46.68C296.458 45.304 297.29 43.656 298.122 41.736C298.506 41.736 298.698 41.88 298.698 42.168C297.994 43.64 297.354 44.936 296.778 46.056C296.202 47.176 295.562 48.168 294.858 49.032C294.154 49.864 293.274 50.632 292.218 51.336C291.162 52.072 289.802 52.776 288.138 53.448C287.37 54.824 286.49 56.248 285.498 57.72C284.538 59.224 283.434 60.616 282.186 61.896C280.97 63.208 279.61 64.264 278.106 65.064C276.634 65.896 275.002 66.312 273.21 66.312ZM272.058 65.352C273.114 65.352 274.202 65.032 275.322 64.392C276.442 63.752 277.53 62.936 278.586 61.944C279.642 60.984 280.602 59.992 281.466 58.968C282.362 57.976 283.082 57.096 283.626 56.328C283.786 56.104 283.962 55.816 284.154 55.464C284.346 55.112 284.538 54.776 284.73 54.456C283.162 54.872 281.434 55.32 279.546 55.8C277.69 56.312 276.074 56.872 274.698 57.48C273.162 58.12 271.962 59.032 271.098 60.216C270.202 61.4 269.754 62.456 269.754 63.384C269.754 63.96 269.946 64.424 270.33 64.776C270.682 65.16 271.258 65.352 272.058 65.352ZM310.595 51C309.283 51 308.307 50.536 307.667 49.608C307.059 48.648 306.755 47.496 306.755 46.152C306.755 44.904 306.995 43.608 307.475 42.264C307.987 40.792 308.691 39.448 309.587 38.232C310.515 37.016 311.523 36.04 312.611 35.304C313.731 34.536 314.835 34.152 315.923 34.152C317.235 34.152 318.195 34.6 318.803 35.496C319.443 36.392 319.763 37.528 319.763 38.904C319.763 39.864 319.603 40.872 319.283 41.928C318.963 42.984 318.531 44.024 317.987 45.048C318.403 45.464 318.995 45.672 319.763 45.672C320.659 45.672 321.427 45.384 322.067 44.808C322.707 44.232 323.331 43.208 323.939 41.736C324.323 41.736 324.515 41.88 324.515 42.168C323.907 43.64 323.203 44.728 322.403 45.432C321.635 46.104 320.643 46.424 319.427 46.392C318.691 46.392 318.083 46.184 317.603 45.768C316.707 47.24 315.635 48.488 314.387 49.512C313.171 50.504 311.907 51 310.595 51ZM311.267 49.944C312.003 49.944 312.739 49.64 313.475 49.032C314.211 48.392 314.883 47.672 315.491 46.872C316.099 46.072 316.531 45.384 316.787 44.808C316.275 43.88 315.971 43.192 315.875 42.744C315.811 42.264 315.779 41.912 315.779 41.688C315.779 41.08 315.939 40.616 316.259 40.296C316.579 39.976 316.899 39.816 317.219 39.816C317.667 39.816 318.051 40.008 318.371 40.392C318.435 40.04 318.483 39.72 318.515 39.432C318.547 39.112 318.563 38.808 318.563 38.52C318.563 37.688 318.403 37.016 318.083 36.504C317.795 35.96 317.331 35.688 316.691 35.688C316.019 35.688 315.315 35.976 314.579 36.552C313.843 37.128 313.139 37.896 312.467 38.856C311.827 39.816 311.267 40.888 310.787 42.072C310.371 43.064 310.051 44.008 309.827 44.904C309.603 45.768 309.491 46.568 309.491 47.304C309.491 48.104 309.635 48.744 309.923 49.224C310.211 49.704 310.659 49.944 311.267 49.944ZM334.926 51C334.574 51 334.142 50.92 333.63 50.76C333.15 50.6 332.718 50.312 332.334 49.896C331.982 49.448 331.806 48.792 331.806 47.928C331.806 47.096 332.078 46.136 332.622 45.048C333.166 43.96 333.646 43 334.062 42.168C333.71 42.168 333.534 42.024 333.534 41.736C333.566 41.64 333.71 41.336 333.966 40.824C334.222 40.312 334.526 39.704 334.878 39C335.23 38.296 335.566 37.624 335.886 36.984C336.238 36.312 336.51 35.8 336.702 35.448C337.086 34.744 337.694 34.392 338.526 34.392H341.502C340.958 34.808 340.462 35.272 340.014 35.784C339.598 36.264 339.07 37.16 338.43 38.472C338.43 38.472 338.318 38.696 338.094 39.144C337.87 39.592 337.582 40.168 337.23 40.872C336.91 41.544 336.574 42.232 336.222 42.936C335.902 43.64 335.63 44.232 335.406 44.712C334.99 45.608 334.718 46.328 334.59 46.872C334.462 47.384 334.398 47.864 334.398 48.312C334.398 49.368 334.75 49.896 335.454 49.896C336.222 49.896 337.15 49.272 338.238 48.024C339.134 46.968 340.014 45.704 340.878 44.232C341.742 42.76 342.558 41.24 343.326 39.672C344.126 38.104 344.83 36.696 345.438 35.448C345.79 34.744 346.414 34.392 347.31 34.392H349.95C349.246 34.968 348.526 35.832 347.79 36.984C347.086 38.136 346.302 39.608 345.438 41.4C345.214 41.88 344.926 42.488 344.574 43.224C344.222 43.96 343.902 44.744 343.614 45.576C343.358 46.408 343.23 47.24 343.23 48.072C343.23 49.192 343.63 49.752 344.43 49.752C345.518 49.752 346.574 49 347.598 47.496C348.622 45.992 349.63 44.072 350.622 41.736C350.878 41.736 351.022 41.752 351.054 41.784C351.118 41.816 351.166 41.944 351.198 42.168C350.846 43.032 350.414 43.976 349.902 45C349.422 45.992 348.862 46.952 348.222 47.88C347.614 48.808 346.926 49.56 346.158 50.136C345.422 50.712 344.606 51 343.71 51C342.91 51 342.254 50.712 341.742 50.136C341.23 49.528 340.974 48.68 340.974 47.592C340.974 46.728 341.134 45.8 341.454 44.808C340.91 45.768 340.286 46.728 339.582 47.688C338.878 48.648 338.126 49.448 337.326 50.088C336.526 50.696 335.726 51 334.926 51ZM360.291 41.592C360.547 41.048 360.883 40.184 361.299 39C361.715 37.784 362.147 36.44 362.595 34.968C363.043 33.496 363.379 32.104 363.603 30.792C363.699 30.28 363.875 29.912 364.131 29.688C364.387 29.432 364.659 29.304 364.947 29.304C365.363 29.304 365.747 29.512 366.099 29.928C366.451 30.312 366.627 30.872 366.627 31.608C366.627 32.504 366.355 33.272 365.811 33.912C365.299 34.552 364.659 35.16 363.891 35.736C364.211 35.768 364.547 35.8 364.899 35.832C365.251 35.832 365.635 35.832 366.051 35.832C367.555 35.832 369.043 35.736 370.515 35.544C370.579 35.736 370.611 35.88 370.611 35.976C370.611 36.392 370.483 36.92 370.227 37.56C370.003 38.2 369.763 38.776 369.507 39.288C369.379 39.576 369.123 40.104 368.739 40.872C368.355 41.608 367.939 42.456 367.491 43.416C367.043 44.344 366.659 45.272 366.339 46.2C366.051 47.096 365.907 47.864 365.907 48.504C365.907 49.336 366.227 49.752 366.867 49.752C367.475 49.752 368.323 49.048 369.411 47.64C370.499 46.2 371.587 44.232 372.675 41.736C373.059 41.736 373.251 41.88 373.251 42.168C372.899 43.032 372.451 43.976 371.907 45C371.395 46.024 370.819 47 370.179 47.928C369.539 48.824 368.851 49.576 368.115 50.184C367.379 50.76 366.611 51.048 365.811 51.048C365.203 51.048 364.595 50.808 363.987 50.328C363.379 49.816 363.075 49 363.075 47.88C363.075 46.888 363.267 45.928 363.651 45C364.035 44.04 364.467 43.144 364.947 42.312C365.427 41.48 365.859 40.744 366.243 40.104C366.627 39.464 366.819 38.952 366.819 38.568C366.819 37.992 366.451 37.576 365.715 37.32C365.011 37.064 364.083 36.92 362.931 36.888C362.355 38.36 361.923 39.448 361.635 40.152C361.347 40.856 361.075 41.528 360.819 42.168C360.307 42.168 360.131 41.976 360.291 41.592ZM383.273 51.192C381.961 51.192 380.889 50.792 380.057 49.992C379.257 49.16 378.857 48.296 378.857 47.4C378.857 46.664 379.049 45.992 379.433 45.384C379.785 44.744 380.265 44.424 380.873 44.424L380.921 44.328C381.625 43.048 382.297 41.752 382.937 40.44C383.609 39.096 384.345 37.672 385.145 36.168C385.817 34.92 386.537 33.896 387.305 33.096C388.105 32.296 389.033 31.896 390.089 31.896C390.345 31.896 390.697 31.96 391.145 32.088C391.593 32.184 391.817 32.408 391.817 32.76C391.817 33.016 391.673 33.144 391.385 33.144C391.161 33.144 390.905 33.08 390.617 32.952C390.361 32.824 390.153 32.76 389.993 32.76C389.385 32.76 388.873 33.112 388.457 33.816C388.041 34.52 387.833 35.272 387.833 36.072C387.833 36.936 387.977 37.72 388.265 38.424C388.553 39.096 388.889 39.752 389.273 40.392C389.657 41.032 389.993 41.688 390.281 42.36C390.569 43 390.713 43.704 390.713 44.472C390.713 46.008 390.409 47.256 389.801 48.216C389.225 49.144 388.457 49.848 387.497 50.328H387.545C389.241 50.328 390.633 49.544 391.721 47.976C392.841 46.376 393.945 44.296 395.033 41.736C395.417 41.736 395.609 41.88 395.609 42.168C395.001 43.608 394.329 45.016 393.593 46.392C392.857 47.768 391.993 48.904 391.001 49.8C390.009 50.696 388.793 51.144 387.353 51.144C386.745 51.144 386.185 51.08 385.673 50.952C384.937 51.112 384.137 51.192 383.273 51.192ZM382.553 46.104C382.553 46.872 382.729 47.608 383.081 48.312C383.433 49.016 384.073 49.544 385.001 49.896C385.833 49.416 386.473 48.68 386.921 47.688C387.401 46.664 387.641 45.608 387.641 44.52C387.641 43.624 387.545 42.712 387.353 41.784C387.161 40.856 386.953 39.944 386.729 39.048C386.537 38.152 386.441 37.352 386.441 36.648C386.441 36.424 386.441 36.232 386.441 36.072C386.473 35.88 386.505 35.704 386.537 35.544C385.961 36.408 385.369 37.416 384.761 38.568C384.185 39.72 383.625 40.824 383.081 41.88C382.537 42.936 382.041 43.8 381.593 44.472C382.233 44.568 382.553 45.112 382.553 46.104ZM380.969 48.504C380.969 49.016 381.145 49.464 381.497 49.848C381.849 50.232 382.377 50.424 383.081 50.424C383.401 50.424 383.705 50.392 383.993 50.328C383.321 49.912 382.777 49.384 382.361 48.744C381.977 48.104 381.785 47.368 381.785 46.536C381.497 46.856 381.289 47.192 381.161 47.544C381.033 47.864 380.969 48.184 380.969 48.504ZM408.118 51.192C406.934 51.192 405.862 50.808 404.902 50.04C403.974 49.272 403.51 48.104 403.51 46.536C403.51 45.224 403.798 43.832 404.374 42.36C404.982 40.888 405.766 39.512 406.726 38.232C407.718 36.92 408.806 35.864 409.99 35.064C411.206 34.232 412.422 33.816 413.638 33.816C414.246 33.816 414.838 33.992 415.414 34.344C415.99 34.696 416.278 35.304 416.278 36.168C416.278 36.968 415.974 37.848 415.366 38.808C414.758 39.768 413.894 40.664 412.774 41.496C412.294 41.848 411.686 42.184 410.95 42.504C410.214 42.824 409.478 43.096 408.742 43.32C408.006 43.512 407.398 43.608 406.918 43.608C406.758 43.992 406.598 44.504 406.438 45.144C406.31 45.784 406.246 46.44 406.246 47.112C406.246 47.912 406.406 48.632 406.726 49.272C407.046 49.912 407.638 50.232 408.502 50.232C409.558 50.232 410.534 49.928 411.43 49.32C412.358 48.712 413.174 47.944 413.878 47.016C414.614 46.088 415.238 45.144 415.75 44.184C416.262 43.224 416.662 42.408 416.95 41.736C417.334 41.736 417.526 41.88 417.526 42.168C417.11 43.064 416.63 44.04 416.086 45.096C415.574 46.152 414.95 47.144 414.214 48.072C413.51 48.968 412.646 49.72 411.622 50.328C410.63 50.904 409.462 51.192 408.118 51.192ZM407.254 42.744C407.702 42.744 408.454 42.584 409.51 42.264C410.566 41.912 411.526 41.368 412.39 40.632C413.222 39.896 413.862 39.096 414.31 38.232C414.758 37.336 414.982 36.584 414.982 35.976C414.982 35.272 414.726 34.92 414.214 34.92C413.83 34.92 413.302 35.176 412.63 35.688C411.958 36.2 411.126 37.064 410.134 38.28C409.526 39.048 408.95 39.88 408.406 40.776C407.862 41.672 407.478 42.328 407.254 42.744ZM428.799 51.144C427.615 51.144 426.735 50.792 426.159 50.088C425.615 49.352 425.343 48.488 425.343 47.496C425.343 46.472 425.487 45.416 425.775 44.328C426.063 43.24 426.319 42.328 426.543 41.592C427.055 39.8 427.695 37.896 428.463 35.88C429.263 33.832 430.127 31.832 431.055 29.88C432.015 27.896 432.959 26.12 433.887 24.552C434.623 23.304 435.407 22.376 436.239 21.768C437.103 21.128 437.855 20.808 438.495 20.808C439.007 20.808 439.407 21 439.695 21.384C440.015 21.736 440.175 22.28 440.175 23.016C440.175 23.528 440.079 24.136 439.887 24.84C439.727 25.544 439.439 26.344 439.023 27.24C437.903 29.736 436.559 32.232 434.991 34.728C433.455 37.224 431.503 39.56 429.135 41.736C428.751 42.632 428.431 43.592 428.175 44.616C427.919 45.64 427.791 46.472 427.791 47.112C427.791 49.096 428.463 50.088 429.807 50.088C430.831 50.088 431.967 49.352 433.215 47.88C434.463 46.376 435.647 44.328 436.767 41.736C436.895 41.736 437.023 41.768 437.151 41.832C437.279 41.864 437.343 41.976 437.343 42.168C436.991 43.032 436.543 43.992 435.999 45.048C435.487 46.072 434.879 47.048 434.175 47.976C433.503 48.904 432.719 49.672 431.823 50.28C430.927 50.856 429.919 51.144 428.799 51.144ZM429.519 40.2C430.671 39.016 431.791 37.656 432.879 36.12C433.967 34.552 434.975 32.936 435.903 31.272C436.863 29.576 437.663 27.976 438.303 26.472C438.527 25.992 438.703 25.464 438.831 24.888C438.991 24.312 439.071 23.832 439.071 23.448C439.071 23 438.959 22.776 438.735 22.776C438.607 22.776 438.415 22.904 438.159 23.16C437.903 23.384 437.567 23.784 437.151 24.36C436.543 25.16 435.871 26.248 435.135 27.624C434.431 29 433.711 30.472 432.975 32.04C432.239 33.608 431.567 35.128 430.959 36.6C430.351 38.04 429.871 39.24 429.519 40.2ZM440.41 67.848C439.706 67.848 439.098 67.672 438.586 67.32C438.042 66.968 437.77 66.28 437.77 65.256C437.77 63.656 438.25 61.48 439.21 58.728C440.17 55.976 441.338 52.952 442.714 49.656C442.33 49.016 442.138 48.344 442.138 47.64C442.138 46.52 442.458 45.752 443.098 45.336C443.642 44.888 444.218 44.712 444.826 44.808C445.978 42.216 447.146 39.672 448.33 37.176C449.514 34.648 450.65 32.264 451.738 30.024C452.858 27.784 453.866 25.816 454.762 24.12C455.306 23.064 455.866 22.248 456.442 21.672C457.05 21.096 457.834 20.808 458.794 20.808C459.082 20.808 459.418 20.872 459.802 21C460.218 21.096 460.586 21.128 460.906 21.096C460.17 21.8 459.242 22.984 458.122 24.648C457.034 26.28 455.85 28.232 454.57 30.504C453.29 32.776 451.978 35.24 450.634 37.896C449.322 40.52 448.058 43.192 446.842 45.912C447.354 46.552 447.706 47.192 447.898 47.832C448.09 48.472 448.298 49.24 448.522 50.136C449.482 50.2 450.394 49.8 451.258 48.936C452.154 48.072 452.97 46.984 453.706 45.672C454.474 44.36 455.13 43.048 455.674 41.736C456.058 41.736 456.25 41.88 456.25 42.168C455.706 43.512 455.05 44.872 454.282 46.248C453.546 47.624 452.698 48.792 451.738 49.752C450.81 50.68 449.77 51.176 448.618 51.24V52.488C448.618 54.152 448.41 55.88 447.994 57.672C447.61 59.464 447.05 61.128 446.314 62.664C445.578 64.2 444.714 65.448 443.722 66.408C442.73 67.368 441.626 67.848 440.41 67.848ZM447.226 50.328H447.466C447.434 49.688 447.306 49.064 447.082 48.456C446.858 47.816 446.602 47.336 446.314 47.016L445.306 49.464C445.594 50.04 446.234 50.328 447.226 50.328ZM441.13 66.552C441.45 66.552 441.834 66.36 442.282 65.976C442.73 65.624 443.162 65.16 443.578 64.584C444.378 63.528 445.082 62.232 445.69 60.696C446.298 59.16 446.778 57.56 447.13 55.896C447.482 54.232 447.642 52.696 447.61 51.288C447.002 51.288 446.442 51.208 445.93 51.048C445.45 50.888 445.066 50.696 444.778 50.472C443.946 52.616 443.178 54.728 442.474 56.808C441.738 58.92 441.178 60.776 440.794 62.376C440.666 62.984 440.57 63.512 440.506 63.96C440.442 64.408 440.41 64.792 440.41 65.112C440.41 66.072 440.65 66.552 441.13 66.552Z" fill="#FEFDFC"/>
</svg>
