<svg width="220" height="82" viewBox="0 0 220 82" fill="none" xmlns="http://www.w3.org/2000/svg">
<g filter="url(#filter0_d_391_334)">
<path d="M30.9439 40.2617H32.5292V50H5.63572V48.4147L8.7497 48.0184C9.35362 47.9429 9.7122 47.7919 9.82544 47.5654C9.93867 47.3012 9.99529 46.5274 9.99529 45.2441V16.2558C9.99529 14.9724 9.93867 14.2175 9.82544 13.991C9.7122 13.7268 9.35362 13.557 8.7497 13.4815L5.63572 13.0852V11.4999H21.149V13.0852L18.035 13.4815C17.4311 13.557 17.0725 13.7268 16.9593 13.991C16.8461 14.2175 16.7894 14.9724 16.7894 16.2558V48.0184H26.0748C26.9807 48.0184 27.6223 47.9995 27.9998 47.9618C28.3772 47.8863 28.6226 47.7542 28.7358 47.5654C28.8868 47.339 29.0189 46.9993 29.1321 46.5463L30.9439 40.2617ZM57.7215 13.0852V11.4999H68.7054V13.0852L65.5914 13.4815C64.9875 13.557 64.6289 13.7268 64.5156 13.991C64.4024 14.2175 64.3458 14.9724 64.3458 16.2558V36.9213C64.3458 41.4507 63.3833 44.8666 61.4583 47.1691C59.571 49.4338 56.6646 50.5662 52.7391 50.5662C48.1719 50.5662 44.4918 49.3206 41.6986 46.8294C38.9055 44.3382 37.5089 40.7524 37.5089 36.072V16.2558C37.5089 14.9724 37.4523 14.2175 37.3391 13.991C37.2258 13.7268 36.8672 13.557 36.2633 13.4815L33.1493 13.0852V11.4999H48.6626V13.0852L45.5487 13.4815C44.9447 13.557 44.5861 13.7268 44.4729 13.991C44.3597 14.2175 44.3031 14.9724 44.3031 16.2558V36.4683C44.3031 40.6958 45.0768 43.7532 46.6244 45.6404C48.1719 47.5277 50.38 48.4713 53.2487 48.4713C56.0418 48.4713 58.2122 47.5843 59.7597 45.8103C61.3073 43.9985 62.0811 41.0733 62.0811 37.0345V16.2558C62.0811 14.9724 62.0245 14.2175 61.9112 13.991C61.798 13.7268 61.4394 13.557 60.8355 13.4815L57.7215 13.0852ZM117.204 48.4147V50H101.691V48.4147L104.805 48.0184C105.408 47.9429 105.767 47.7919 105.88 47.5654C105.994 47.3012 106.05 46.5274 106.05 45.2441V16.1425L95.6891 45.4706H89.631L79.3831 16.3124V45.2441C79.3831 46.5274 79.4397 47.3012 79.553 47.5654C79.6662 47.7919 80.0248 47.9429 80.6287 48.0184L83.7427 48.4147V50H72.7588V48.4147L75.8728 48.0184C76.4767 47.9429 76.8353 47.7919 76.9486 47.5654C77.0618 47.3012 77.1184 46.5274 77.1184 45.2441V16.2558C77.1184 14.9724 77.0618 14.2175 76.9486 13.991C76.8353 13.7268 76.4767 13.557 75.8728 13.4815L72.7588 13.0852V11.4999H84.7052L95.0663 40.9411L105.597 11.4999H117.204V13.0852L114.09 13.4815C113.486 13.557 113.127 13.7268 113.014 13.991C112.901 14.2175 112.844 14.9724 112.844 16.2558V45.2441C112.844 46.5274 112.901 47.3012 113.014 47.5654C113.127 47.7919 113.486 47.9429 114.09 48.0184L117.204 48.4147ZM122.078 13.0852V11.4999H137.592V13.0852L134.478 13.4815C133.874 13.557 133.515 13.7268 133.402 13.991C133.289 14.2175 133.232 14.9724 133.232 16.2558V45.2441C133.232 46.5274 133.289 47.3012 133.402 47.5654C133.515 47.7919 133.874 47.9429 134.478 48.0184L137.592 48.4147V50H122.078V48.4147L125.192 48.0184C125.796 47.9429 126.155 47.7919 126.268 47.5654C126.381 47.3012 126.438 46.5274 126.438 45.2441V16.2558C126.438 14.9724 126.381 14.2175 126.268 13.991C126.155 13.7268 125.796 13.557 125.192 13.4815L122.078 13.0852ZM166.373 13.0852V11.4999H177.357V13.0852L174.243 13.4815C173.639 13.557 173.281 13.7268 173.168 13.991C173.054 14.2175 172.998 14.9724 172.998 16.2558V50H169.884L149.105 16.4256V45.2441C149.105 46.5274 149.162 47.3012 149.275 47.5654C149.388 47.7919 149.747 47.9429 150.351 48.0184L153.465 48.4147V50H142.481V48.4147L145.595 48.0184C146.199 47.9429 146.557 47.7919 146.67 47.5654C146.784 47.3012 146.84 46.5274 146.84 45.2441V16.2558C146.84 14.9724 146.784 14.2175 146.67 13.991C146.557 13.7268 146.199 13.557 145.595 13.4815L142.481 13.0852V11.4999H153.861L170.733 38.6198V16.2558C170.733 14.9724 170.676 14.2175 170.563 13.991C170.45 13.7268 170.091 13.557 169.487 13.4815L166.373 13.0852ZM189.227 48.4147V50H178.299V48.4147L181.413 48.0184C181.829 47.9429 182.131 47.8674 182.319 47.7919C182.508 47.6787 182.678 47.4333 182.829 47.0559C182.98 46.6784 183.187 46.0745 183.452 45.2441L194.266 11.4999H199.135L210.005 45.2441C210.27 46.0745 210.477 46.6784 210.628 47.0559C210.779 47.4333 210.949 47.6787 211.138 47.7919C211.364 47.8674 211.666 47.9429 212.044 48.0184L215.158 48.4147V50H199.531V48.4147L202.645 48.0184C203.249 47.9429 203.57 47.7919 203.608 47.5654C203.683 47.3012 203.513 46.5274 203.098 45.2441L200.947 38.2235H187.868L185.66 45.2441C185.282 46.5274 185.112 47.3012 185.15 47.5654C185.188 47.7919 185.509 47.9429 186.113 48.0184L189.227 48.4147ZM188.547 36.2419H200.324L194.492 17.4447L188.547 36.2419Z" fill="#664231"/>
</g>
<g filter="url(#filter1_d_391_334)">
<line x1="30.5752" y1="60.4395" x2="59.2252" y2="60.4395" stroke="#5B3C1D" stroke-width="0.795833"/>
<path d="M75.4978 60.1524L73.7151 66.8374H72.6805L70.5954 60.2638L68.5104 66.8374H67.5235L65.7568 60.1524C65.6825 59.8447 65.6188 59.659 65.5658 59.5953C65.5233 59.5317 65.4172 59.4892 65.2474 59.468L64.4357 59.3884V58.9587H68.0488V59.3884L67.2211 59.468C67.0513 59.4892 66.9558 59.5317 66.9346 59.5953C66.924 59.659 66.9611 59.8447 67.046 60.1524L68.4149 65.4049L70.4363 58.9587H71.4709L73.5241 65.5004L74.9089 60.1524C74.9938 59.8447 75.0256 59.659 75.0044 59.5953C74.9938 59.5317 74.9036 59.4892 74.7338 59.468L73.9061 59.3884V58.9587H76.8189V59.3884L76.0071 59.468C75.8479 59.4892 75.7418 59.5317 75.6888 59.5953C75.6463 59.659 75.5827 59.8447 75.4978 60.1524ZM84.4703 62.7309V63.0492C84.4703 64.2483 84.1679 65.2086 83.5631 65.9302C82.9688 66.6411 82.1199 66.9966 81.0164 66.9966C79.9234 66.9966 79.0746 66.6411 78.4697 65.9302C77.8755 65.2086 77.5784 64.2483 77.5784 63.0492V62.7309C77.5784 61.5425 77.8755 60.5928 78.4697 59.8818C79.0639 59.1603 79.9128 58.7995 81.0164 58.7995C82.1199 58.7995 82.9688 59.1603 83.5631 59.8818C84.1679 60.5928 84.4703 61.5425 84.4703 62.7309ZM83.0378 62.4126C83.0378 61.309 82.8627 60.5185 82.5126 60.041C82.173 59.5529 81.6743 59.3088 81.0164 59.3088C80.3691 59.3088 79.8704 59.5529 79.5202 60.041C79.1807 60.5185 79.0109 61.309 79.0109 62.4126V63.3676C79.0109 64.4817 79.1807 65.2829 79.5202 65.771C79.8704 66.2485 80.3691 66.4872 81.0164 66.4872C81.6743 66.4872 82.173 66.2485 82.5126 65.771C82.8627 65.2829 83.0378 64.4817 83.0378 63.3676V62.4126ZM94.7468 66.4236V66.8374H90.9904V66.4236L91.8658 66.3281C92.0356 66.3068 92.1364 66.2644 92.1682 66.2007C92.2001 66.1371 92.216 65.9195 92.216 65.5482V61.5849C92.216 60.7997 92.094 60.2479 91.8499 59.9296C91.6165 59.6006 91.2716 59.4362 90.8153 59.4362C90.4864 59.4362 90.115 59.5423 89.7012 59.7545C89.2979 59.9667 88.9106 60.3752 88.5392 60.9801V65.5482C88.5392 65.9195 88.5552 66.1371 88.587 66.2007C88.6188 66.2644 88.7196 66.3068 88.8894 66.3281L89.7648 66.4236V66.8374H86.0085V66.4236L86.8839 66.3281C87.0537 66.3068 87.1545 66.2644 87.1863 66.2007C87.2182 66.1371 87.2341 65.9195 87.2341 65.5482V60.2479C87.2341 59.8765 87.2182 59.659 87.1863 59.5953C87.1545 59.5317 87.0537 59.4892 86.8839 59.468L86.0085 59.3884V58.9587H88.4597V60.2479C88.8311 59.7492 89.2502 59.3831 89.7171 59.1497C90.1946 58.9162 90.6668 58.7995 91.1337 58.7995C92.2797 58.7995 93.0171 59.3247 93.3461 60.3752C93.7387 59.8235 94.1738 59.4255 94.6512 59.1815C95.1394 58.9268 95.6275 58.7995 96.1156 58.7995C96.869 58.7995 97.4526 59.0435 97.8664 59.5317C98.2909 60.0092 98.5031 60.6883 98.5031 61.569V65.5482C98.5031 65.9195 98.519 66.1371 98.5508 66.2007C98.5827 66.2644 98.6835 66.3068 98.8533 66.3281L99.7287 66.4236V66.8374H95.9723V66.4236L96.8477 66.3281C97.0175 66.3068 97.1183 66.2644 97.1502 66.2007C97.182 66.1371 97.1979 65.9195 97.1979 65.5482V61.5849C97.1979 60.7997 97.0759 60.2479 96.8318 59.9296C96.5984 59.6006 96.2535 59.4362 95.7973 59.4362C95.4683 59.4362 95.0916 59.5476 94.6672 59.7704C94.2533 59.9826 93.8607 60.4018 93.4893 61.0278C93.4999 61.1127 93.5053 61.2029 93.5053 61.2984C93.5159 61.3833 93.5212 61.4735 93.5212 61.569V65.5482C93.5212 65.9195 93.5371 66.1371 93.5689 66.2007C93.6007 66.2644 93.7016 66.3068 93.8713 66.3281L94.7468 66.4236ZM107.431 65.0229C107.24 65.7445 106.879 66.2538 106.349 66.5509C105.829 66.848 105.251 66.9966 104.614 66.9966C103.436 66.9966 102.555 66.6411 101.972 65.9302C101.388 65.2086 101.096 64.2483 101.096 63.0492V62.7309C101.096 61.5425 101.377 60.5928 101.94 59.8818C102.502 59.1603 103.319 58.7995 104.391 58.7995C104.964 58.7995 105.484 58.9162 105.951 59.1497C106.428 59.3831 106.805 59.728 107.081 60.1842C107.367 60.6405 107.511 61.2082 107.511 61.8873C107.511 62.2057 107.479 62.5399 107.415 62.8901H102.529V63.3676C102.529 64.4817 102.699 65.2829 103.038 65.771C103.388 66.2485 103.951 66.4872 104.725 66.4872C105.213 66.4872 105.617 66.3599 105.935 66.1052C106.264 65.8506 106.481 65.4102 106.588 64.7842L107.431 65.0229ZM104.391 59.3088C103.765 59.3088 103.298 59.5476 102.99 60.0251C102.683 60.5026 102.529 61.2878 102.529 62.3807H106.11V62.333C106.131 62.195 106.147 62.0624 106.158 61.9351C106.168 61.7971 106.174 61.6751 106.174 61.569C106.174 60.7732 106.009 60.2002 105.68 59.85C105.351 59.4892 104.922 59.3088 104.391 59.3088ZM117.91 66.4236V66.8374H114.154V66.4236L115.03 66.3281C115.199 66.3068 115.3 66.2644 115.332 66.2007C115.364 66.1371 115.38 65.9195 115.38 65.5482V61.5849C115.38 60.7997 115.252 60.2479 114.998 59.9296C114.743 59.6006 114.377 59.4362 113.899 59.4362C113.549 59.4362 113.162 59.5423 112.738 59.7545C112.313 59.9667 111.915 60.3805 111.544 60.996V65.5482C111.544 65.9195 111.56 66.1371 111.592 66.2007C111.623 66.2644 111.724 66.3068 111.894 66.3281L112.769 66.4236V66.8374H109.013V66.4236L109.888 66.3281C110.058 66.3068 110.159 66.2644 110.191 66.2007C110.223 66.1371 110.239 65.9195 110.239 65.5482V60.2479C110.239 59.8765 110.223 59.659 110.191 59.5953C110.159 59.5317 110.058 59.4892 109.888 59.468L109.013 59.3884V58.9587H111.464V60.2479C111.846 59.7386 112.276 59.3725 112.753 59.1497C113.242 58.9162 113.73 58.7995 114.218 58.7995C115.003 58.7995 115.608 59.0435 116.032 59.5317C116.467 60.0092 116.685 60.6883 116.685 61.569V65.5482C116.685 65.9195 116.701 66.1371 116.733 66.2007C116.764 66.2644 116.865 66.3068 117.035 66.3281L117.91 66.4236ZM129.86 67.7606C129.86 68.6095 129.547 69.2567 128.921 69.7024C128.305 70.1587 127.446 70.3868 126.342 70.3868C125.133 70.3868 124.247 70.1746 123.684 69.7502C123.122 69.3363 122.83 68.8111 122.809 68.1744L123.987 67.9357C123.944 68.5193 124.098 68.9862 124.448 69.3363C124.809 69.6971 125.44 69.8775 126.342 69.8775C127.149 69.8775 127.796 69.7289 128.284 69.4318C128.783 69.1347 129.032 68.6997 129.032 68.1267C129.032 67.7022 128.889 67.3839 128.602 67.1717C128.316 66.9594 127.844 66.8533 127.186 66.8533H125.292C124.581 66.8533 124.082 66.7048 123.796 66.4077C123.509 66.0999 123.366 65.7604 123.366 65.389C123.366 65.0813 123.44 64.7948 123.589 64.5295C123.748 64.2536 123.997 63.983 124.337 63.7177C123.912 63.5161 123.568 63.2243 123.302 62.8423C123.037 62.4497 122.904 61.9775 122.904 61.4257C122.904 60.8421 123.037 60.3593 123.302 59.9773C123.578 59.5847 123.939 59.2929 124.385 59.1019C124.841 58.9003 125.345 58.7995 125.897 58.7995H126.167C126.751 58.7995 127.271 58.9056 127.727 59.1178L130.035 58.322L130.21 59.5157H128.348C128.592 59.728 128.783 59.9932 128.921 60.3116C129.069 60.6299 129.144 61.0013 129.144 61.4257C129.144 61.9881 129.006 62.4656 128.73 62.8582C128.465 63.2508 128.109 63.548 127.663 63.7496C127.218 63.9406 126.719 64.0361 126.167 64.0361H125.897C125.716 64.0361 125.541 64.0255 125.371 64.0042C125.202 63.983 125.037 63.9512 124.878 63.9087C124.645 64.0679 124.475 64.2324 124.369 64.4022C124.273 64.5719 124.225 64.747 124.225 64.9274C124.225 65.1396 124.3 65.3094 124.448 65.4367C124.607 65.5641 124.857 65.6277 125.196 65.6277H127.265C128.104 65.6277 128.746 65.8081 129.191 66.1689C129.637 66.5297 129.86 67.0602 129.86 67.7606ZM126.167 63.5267C126.454 63.5267 126.714 63.4631 126.947 63.3357C127.191 63.2084 127.388 62.9962 127.536 62.6991C127.685 62.3913 127.759 61.9669 127.759 61.4257C127.759 60.874 127.685 60.4495 127.536 60.1524C127.388 59.8447 127.191 59.6272 126.947 59.4998C126.714 59.3725 126.454 59.3088 126.167 59.3088H125.897C125.61 59.3088 125.345 59.3725 125.101 59.4998C124.857 59.6272 124.66 59.8447 124.512 60.1524C124.363 60.4495 124.289 60.874 124.289 61.4257C124.289 61.9669 124.363 62.3913 124.512 62.6991C124.66 62.9962 124.857 63.2084 125.101 63.3357C125.345 63.4631 125.61 63.5267 125.897 63.5267H126.167ZM134.938 67.6332C134.705 68.2805 134.45 68.8058 134.174 69.209C133.898 69.6228 133.569 69.9199 133.187 70.1003C132.805 70.2913 132.328 70.3868 131.755 70.3868V69.1135C132.519 69.1135 133.097 68.9915 133.49 68.7474C133.882 68.514 134.195 68.0736 134.429 67.4263L134.636 66.8374H134.174L131.834 60.1524C131.728 59.8447 131.649 59.6643 131.595 59.6112C131.542 59.5476 131.431 59.5051 131.261 59.4839L130.449 59.3884V58.9587H134.078V59.3884L133.267 59.4839C133.118 59.4945 133.033 59.5317 133.012 59.5953C132.991 59.659 133.033 59.8447 133.139 60.1524L135.049 65.6596L136.975 60.1365C137.071 59.8288 137.108 59.6484 137.087 59.5953C137.076 59.5423 136.991 59.5051 136.832 59.4839L136.004 59.3884V58.9587H138.917V59.3884L138.105 59.4839C137.946 59.5051 137.84 59.5423 137.787 59.5953C137.734 59.6484 137.654 59.8288 137.548 60.1365L134.938 67.6332ZM148.186 66.4236V66.8374H144.429V66.4236L145.305 66.3281C145.475 66.3068 145.575 66.2644 145.607 66.2007C145.639 66.1371 145.655 65.9195 145.655 65.5482V61.5849C145.655 60.7997 145.533 60.2479 145.289 59.9296C145.055 59.6006 144.711 59.4362 144.254 59.4362C143.925 59.4362 143.554 59.5423 143.14 59.7545C142.737 59.9667 142.35 60.3752 141.978 60.9801V65.5482C141.978 65.9195 141.994 66.1371 142.026 66.2007C142.058 66.2644 142.159 66.3068 142.328 66.3281L143.204 66.4236V66.8374H139.447V66.4236L140.323 66.3281C140.493 66.3068 140.593 66.2644 140.625 66.2007C140.657 66.1371 140.673 65.9195 140.673 65.5482V60.2479C140.673 59.8765 140.657 59.659 140.625 59.5953C140.593 59.5317 140.493 59.4892 140.323 59.468L139.447 59.3884V58.9587H141.899V60.2479C142.27 59.7492 142.689 59.3831 143.156 59.1497C143.634 58.9162 144.106 58.7995 144.573 58.7995C145.719 58.7995 146.456 59.3247 146.785 60.3752C147.178 59.8235 147.613 59.4255 148.09 59.1815C148.578 58.9268 149.066 58.7995 149.555 58.7995C150.308 58.7995 150.892 59.0435 151.305 59.5317C151.73 60.0092 151.942 60.6883 151.942 61.569V65.5482C151.942 65.9195 151.958 66.1371 151.99 66.2007C152.022 66.2644 152.122 66.3068 152.292 66.3281L153.168 66.4236V66.8374H149.411V66.4236L150.287 66.3281C150.456 66.3068 150.557 66.2644 150.589 66.2007C150.621 66.1371 150.637 65.9195 150.637 65.5482V61.5849C150.637 60.7997 150.515 60.2479 150.271 59.9296C150.037 59.6006 149.692 59.4362 149.236 59.4362C148.907 59.4362 148.531 59.5476 148.106 59.7704C147.692 59.9826 147.3 60.4018 146.928 61.0278C146.939 61.1127 146.944 61.2029 146.944 61.2984C146.955 61.3833 146.96 61.4735 146.96 61.569V65.5482C146.96 65.9195 146.976 66.1371 147.008 66.2007C147.04 66.2644 147.141 66.3068 147.31 66.3281L148.186 66.4236Z" fill="#664231"/>
<rect width="28.65" height="0" transform="translate(158.775 60.8374)" fill="#5B3C1D"/>
<line x1="158.775" y1="60.4395" x2="187.425" y2="60.4395" stroke="#5B3C1D" stroke-width="0.795833"/>
</g>
<defs>
<filter id="filter0_d_391_334" x="0.917587" y="11.5" width="218.958" height="48.5027" filterUnits="userSpaceOnUse" color-interpolation-filters="sRGB">
<feFlood flood-opacity="0" result="BackgroundImageFix"/>
<feColorMatrix in="SourceAlpha" type="matrix" values="0 0 0 0 0 0 0 0 0 0 0 0 0 0 0 0 0 0 127 0" result="hardAlpha"/>
<feOffset dy="4.71815"/>
<feGaussianBlur stdDeviation="2.35908"/>
<feComposite in2="hardAlpha" operator="out"/>
<feColorMatrix type="matrix" values="0 0 0 0 0 0 0 0 0 0 0 0 0 0 0 0 0 0 0.25 0"/>
<feBlend mode="normal" in2="BackgroundImageFix" result="effect1_dropShadow_391_334"/>
<feBlend mode="normal" in="SourceGraphic" in2="effect1_dropShadow_391_334" result="shape"/>
</filter>
<filter id="filter1_d_391_334" x="25.857" y="49.8374" width="166.287" height="31.4363" filterUnits="userSpaceOnUse" color-interpolation-filters="sRGB">
<feFlood flood-opacity="0" result="BackgroundImageFix"/>
<feColorMatrix in="SourceAlpha" type="matrix" values="0 0 0 0 0 0 0 0 0 0 0 0 0 0 0 0 0 0 127 0" result="hardAlpha"/>
<feOffset dy="4.71815"/>
<feGaussianBlur stdDeviation="2.35908"/>
<feComposite in2="hardAlpha" operator="out"/>
<feColorMatrix type="matrix" values="0 0 0 0 0 0 0 0 0 0 0 0 0 0 0 0 0 0 0.25 0"/>
<feBlend mode="normal" in2="BackgroundImageFix" result="effect1_dropShadow_391_334"/>
<feBlend mode="normal" in="SourceGraphic" in2="effect1_dropShadow_391_334" result="shape"/>
</filter>
</defs>
</svg>
